<?xml version="1.0" encoding="utf-8" standalone="no"?>
<!DOCTYPE svg PUBLIC "-//W3C//DTD SVG 1.1//EN"
  "http://www.w3.org/Graphics/SVG/1.1/DTD/svg11.dtd">
<svg xmlns:xlink="http://www.w3.org/1999/xlink" width="576pt" height="576pt" viewBox="0 0 576 576" xmlns="http://www.w3.org/2000/svg" version="1.1">
 <metadata>
  <rdf:RDF xmlns:dc="http://purl.org/dc/elements/1.1/" xmlns:cc="http://creativecommons.org/ns#" xmlns:rdf="http://www.w3.org/1999/02/22-rdf-syntax-ns#">
   <cc:Work>
    <dc:type rdf:resource="http://purl.org/dc/dcmitype/StillImage"/>
    <dc:date>2023-07-05T15:52:26.916206</dc:date>
    <dc:format>image/svg+xml</dc:format>
    <dc:creator>
     <cc:Agent>
      <dc:title>Matplotlib v3.5.1, https://matplotlib.org/</dc:title>
     </cc:Agent>
    </dc:creator>
   </cc:Work>
  </rdf:RDF>
 </metadata>
 <defs>
  <style type="text/css">*{stroke-linejoin: round; stroke-linecap: butt}</style>
 </defs>
 <g id="figure_1">
  <g id="patch_1">
   <path d="M 0 576 
L 576 576 
L 576 0 
L 0 0 
z
" style="fill: #ffffff"/>
  </g>
  <g id="axes_1">
   <g id="patch_2">
    <path d="M 72 512.64 
L 518.4 512.64 
L 518.4 69.12 
L 72 69.12 
z
" style="fill: #ffffff"/>
   </g>
   <g id="PathCollection_1">
    <defs>
     <path id="m846a9254a5" d="M 0 3 
C 0.795609 3 1.55874 2.683901 2.12132 2.12132 
C 2.683901 1.55874 3 0.795609 3 0 
C 3 -0.795609 2.683901 -1.55874 2.12132 -2.12132 
C 1.55874 -2.683901 0.795609 -3 0 -3 
C -0.795609 -3 -1.55874 -2.683901 -2.12132 -2.12132 
C -2.683901 -1.55874 -3 -0.795609 -3 0 
C -3 0.795609 -2.683901 1.55874 -2.12132 2.12132 
C -1.55874 2.683901 -0.795609 3 0 3 
z
" style="stroke: #1f77b4"/>
    </defs>
    <g clip-path="url(#pbbfdbbbdc2)">
     <use xlink:href="#m846a9254a5" x="275.582906" y="431.586231" style="fill: #1f77b4; stroke: #1f77b4"/>
     <use xlink:href="#m846a9254a5" x="267.76952" y="422.662789" style="fill: #1f77b4; stroke: #1f77b4"/>
     <use xlink:href="#m846a9254a5" x="277.948426" y="433.119169" style="fill: #1f77b4; stroke: #1f77b4"/>
     <use xlink:href="#m846a9254a5" x="259.334886" y="410.262196" style="fill: #1f77b4; stroke: #1f77b4"/>
     <use xlink:href="#m846a9254a5" x="279.668805" y="436.59632" style="fill: #1f77b4; stroke: #1f77b4"/>
     <use xlink:href="#m846a9254a5" x="299.907147" y="447.277033" style="fill: #1f77b4; stroke: #1f77b4"/>
     <use xlink:href="#m846a9254a5" x="264.113716" y="418.624807" style="fill: #1f77b4; stroke: #1f77b4"/>
     <use xlink:href="#m846a9254a5" x="278.044003" y="435.499585" style="fill: #1f77b4; stroke: #1f77b4"/>
     <use xlink:href="#m846a9254a5" x="292.045973" y="444.82184" style="fill: #1f77b4; stroke: #1f77b4"/>
     <use xlink:href="#m846a9254a5" x="290.421171" y="444.43549" style="fill: #1f77b4; stroke: #1f77b4"/>
     <use xlink:href="#m846a9254a5" x="456.127076" y="491.171395" style="fill: #1f77b4; stroke: #1f77b4"/>
     <use xlink:href="#m846a9254a5" x="435.100227" y="489.962493" style="fill: #1f77b4; stroke: #1f77b4"/>
     <use xlink:href="#m846a9254a5" x="364.182401" y="467.417092" style="fill: #1f77b4; stroke: #1f77b4"/>
     <use xlink:href="#m846a9254a5" x="310.133841" y="449.532819" style="fill: #1f77b4; stroke: #1f77b4"/>
     <use xlink:href="#m846a9254a5" x="287.028202" y="437.605816" style="fill: #1f77b4; stroke: #1f77b4"/>
     <use xlink:href="#m846a9254a5" x="287.792815" y="438.241424" style="fill: #1f77b4; stroke: #1f77b4"/>
     <use xlink:href="#m846a9254a5" x="310.826772" y="450.39276" style="fill: #1f77b4; stroke: #1f77b4"/>
     <use xlink:href="#m846a9254a5" x="310.659513" y="450.305519" style="fill: #1f77b4; stroke: #1f77b4"/>
     <use xlink:href="#m846a9254a5" x="181.84617" y="314.048546" style="fill: #1f77b4; stroke: #1f77b4"/>
     <use xlink:href="#m846a9254a5" x="170.138038" y="288.200475" style="fill: #1f77b4; stroke: #1f77b4"/>
     <use xlink:href="#m846a9254a5" x="188.512636" y="326.424214" style="fill: #1f77b4; stroke: #1f77b4"/>
     <use xlink:href="#m846a9254a5" x="259.430463" y="414.748843" style="fill: #1f77b4; stroke: #1f77b4"/>
     <use xlink:href="#m846a9254a5" x="183.375395" y="322.174362" style="fill: #1f77b4; stroke: #1f77b4"/>
     <use xlink:href="#m846a9254a5" x="171.571687" y="299.454481" style="fill: #1f77b4; stroke: #1f77b4"/>
     <use xlink:href="#m846a9254a5" x="182.180688" y="320.304926" style="fill: #1f77b4; stroke: #1f77b4"/>
     <use xlink:href="#m846a9254a5" x="288.414062" y="440.397507" style="fill: #1f77b4; stroke: #1f77b4"/>
     <use xlink:href="#m846a9254a5" x="250.685205" y="410.187418" style="fill: #1f77b4; stroke: #1f77b4"/>
     <use xlink:href="#m846a9254a5" x="311.44802" y="452.548843" style="fill: #1f77b4; stroke: #1f77b4"/>
     <use xlink:href="#m846a9254a5" x="269.466004" y="428.595134" style="fill: #1f77b4; stroke: #1f77b4"/>
     <use xlink:href="#m846a9254a5" x="147.844799" y="255.13638" style="fill: #1f77b4; stroke: #1f77b4"/>
     <use xlink:href="#m846a9254a5" x="237.065542" y="394.284748" style="fill: #1f77b4; stroke: #1f77b4"/>
     <use xlink:href="#m846a9254a5" x="333.024434" y="462.544095" style="fill: #1f77b4; stroke: #1f77b4"/>
     <use xlink:href="#m846a9254a5" x="170.735392" y="299.267537" style="fill: #1f77b4; stroke: #1f77b4"/>
     <use xlink:href="#m846a9254a5" x="329.4881" y="461.011157" style="fill: #1f77b4; stroke: #1f77b4"/>
     <use xlink:href="#m846a9254a5" x="338.854605" y="465.074065" style="fill: #1f77b4; stroke: #1f77b4"/>
     <use xlink:href="#m846a9254a5" x="301.388584" y="448.548249" style="fill: #1f77b4; stroke: #1f77b4"/>
     <use xlink:href="#m846a9254a5" x="146.865139" y="254.625401" style="fill: #1f77b4; stroke: #1f77b4"/>
     <use xlink:href="#m846a9254a5" x="311.878114" y="454.243798" style="fill: #1f77b4; stroke: #1f77b4"/>
     <use xlink:href="#m846a9254a5" x="315.414448" y="455.776736" style="fill: #1f77b4; stroke: #1f77b4"/>
     <use xlink:href="#m846a9254a5" x="155.825444" y="270.216499" style="fill: #1f77b4; stroke: #1f77b4"/>
     <use xlink:href="#m846a9254a5" x="301.006278" y="448.386231" style="fill: #1f77b4; stroke: #1f77b4"/>
     <use xlink:href="#m846a9254a5" x="274.292622" y="430.676439" style="fill: #1f77b4; stroke: #1f77b4"/>
     <use xlink:href="#m846a9254a5" x="349.344136" y="467.404629" style="fill: #1f77b4; stroke: #1f77b4"/>
     <use xlink:href="#m846a9254a5" x="158.907789" y="277.656855" style="fill: #1f77b4; stroke: #1f77b4"/>
     <use xlink:href="#m846a9254a5" x="163.208735" y="281.719763" style="fill: #1f77b4; stroke: #1f77b4"/>
     <use xlink:href="#m846a9254a5" x="268.080144" y="425.803442" style="fill: #1f77b4; stroke: #1f77b4"/>
     <use xlink:href="#m846a9254a5" x="338.472299" y="464.912047" style="fill: #1f77b4; stroke: #1f77b4"/>
     <use xlink:href="#m846a9254a5" x="315.796754" y="455.938754" style="fill: #1f77b4; stroke: #1f77b4"/>
     <use xlink:href="#m846a9254a5" x="180.054109" y="313.662196" style="fill: #1f77b4; stroke: #1f77b4"/>
     <use xlink:href="#m846a9254a5" x="149.947484" y="262.065757" style="fill: #1f77b4; stroke: #1f77b4"/>
     <use xlink:href="#m846a9254a5" x="348.579523" y="465.697211" style="fill: #1f77b4; stroke: #1f77b4"/>
     <use xlink:href="#m846a9254a5" x="455.290781" y="490.461009" style="fill: #1f77b4; stroke: #1f77b4"/>
     <use xlink:href="#m846a9254a5" x="399.904149" y="481.487715" style="fill: #1f77b4; stroke: #1f77b4"/>
     <use xlink:href="#m846a9254a5" x="406.18831" y="483.743501" style="fill: #1f77b4; stroke: #1f77b4"/>
     <use xlink:href="#m846a9254a5" x="426.47444" y="488.404629" style="fill: #1f77b4; stroke: #1f77b4"/>
     <use xlink:href="#m846a9254a5" x="218.667049" y="369.109674" style="fill: #1f77b4; stroke: #1f77b4"/>
     <use xlink:href="#m846a9254a5" x="228.153025" y="383.790979" style="fill: #1f77b4; stroke: #1f77b4"/>
     <use xlink:href="#m846a9254a5" x="235.392952" y="391.692463" style="fill: #1f77b4; stroke: #1f77b4"/>
     <use xlink:href="#m846a9254a5" x="236.324823" y="393.748843" style="fill: #1f77b4; stroke: #1f77b4"/>
     <use xlink:href="#m846a9254a5" x="219.790074" y="376.786825" style="fill: #1f77b4; stroke: #1f77b4"/>
     <use xlink:href="#m846a9254a5" x="224.592797" y="382.008783" style="fill: #1f77b4; stroke: #1f77b4"/>
     <use xlink:href="#m846a9254a5" x="222.466218" y="379.877626" style="fill: #1f77b4; stroke: #1f77b4"/>
     <use xlink:href="#m846a9254a5" x="233.648679" y="390.658042" style="fill: #1f77b4; stroke: #1f77b4"/>
     <use xlink:href="#m846a9254a5" x="425.064685" y="487.258042" style="fill: #1f77b4; stroke: #1f77b4"/>
     <use xlink:href="#m846a9254a5" x="434.407297" y="489.040237" style="fill: #1f77b4; stroke: #1f77b4"/>
     <use xlink:href="#m846a9254a5" x="412.090164" y="484.428961" style="fill: #1f77b4; stroke: #1f77b4"/>
     <use xlink:href="#m846a9254a5" x="426.522228" y="488.691276" style="fill: #1f77b4; stroke: #1f77b4"/>
     <use xlink:href="#m846a9254a5" x="419.473455" y="487.220653" style="fill: #1f77b4; stroke: #1f77b4"/>
     <use xlink:href="#m846a9254a5" x="416.892887" y="486.597507" style="fill: #1f77b4; stroke: #1f77b4"/>
     <use xlink:href="#m846a9254a5" x="428.792172" y="489.015312" style="fill: #1f77b4; stroke: #1f77b4"/>
     <use xlink:href="#m846a9254a5" x="438.612666" y="490.361306" style="fill: #1f77b4; stroke: #1f77b4"/>
     <use xlink:href="#m846a9254a5" x="402.723659" y="481.662196" style="fill: #1f77b4; stroke: #1f77b4"/>
     <use xlink:href="#m846a9254a5" x="461.144846" y="491.79454" style="fill: #1f77b4; stroke: #1f77b4"/>
     <use xlink:href="#m846a9254a5" x="468.31309" y="492.106113" style="fill: #1f77b4; stroke: #1f77b4"/>
     <use xlink:href="#m846a9254a5" x="413.45213" y="485.675252" style="fill: #1f77b4; stroke: #1f77b4"/>
     <use xlink:href="#m846a9254a5" x="412.998142" y="485.525697" style="fill: #1f77b4; stroke: #1f77b4"/>
     <use xlink:href="#m846a9254a5" x="483.892074" y="492.455074" style="fill: #1f77b4; stroke: #1f77b4"/>
     <use xlink:href="#m846a9254a5" x="498.109091" y="492.48" style="fill: #1f77b4; stroke: #1f77b4"/>
     <use xlink:href="#m846a9254a5" x="93.605087" y="98.016499" style="fill: #1f77b4; stroke: #1f77b4"/>
     <use xlink:href="#m846a9254a5" x="125.647137" y="172.694243" style="fill: #1f77b4; stroke: #1f77b4"/>
     <use xlink:href="#m846a9254a5" x="93.724558" y="98.639644" style="fill: #1f77b4; stroke: #1f77b4"/>
     <use xlink:href="#m846a9254a5" x="93.437828" y="96.682967" style="fill: #1f77b4; stroke: #1f77b4"/>
     <use xlink:href="#m846a9254a5" x="93.222781" y="90.875252" style="fill: #1f77b4; stroke: #1f77b4"/>
     <use xlink:href="#m846a9254a5" x="107.463692" y="163.347062" style="fill: #1f77b4; stroke: #1f77b4"/>
     <use xlink:href="#m846a9254a5" x="121.035567" y="172.494837" style="fill: #1f77b4; stroke: #1f77b4"/>
     <use xlink:href="#m846a9254a5" x="104.1663" y="138.882374" style="fill: #1f77b4; stroke: #1f77b4"/>
     <use xlink:href="#m846a9254a5" x="118.956776" y="171.298398" style="fill: #1f77b4; stroke: #1f77b4"/>
     <use xlink:href="#m846a9254a5" x="114.177947" y="164.19454" style="fill: #1f77b4; stroke: #1f77b4"/>
     <use xlink:href="#m846a9254a5" x="115.372654" y="166.063976" style="fill: #1f77b4; stroke: #1f77b4"/>
     <use xlink:href="#m846a9254a5" x="116.352314" y="169.341721" style="fill: #1f77b4; stroke: #1f77b4"/>
     <use xlink:href="#m846a9254a5" x="98.551175" y="128.326291" style="fill: #1f77b4; stroke: #1f77b4"/>
     <use xlink:href="#m846a9254a5" x="112.768193" y="164.1073" style="fill: #1f77b4; stroke: #1f77b4"/>
     <use xlink:href="#m846a9254a5" x="101.51405" y="137.92273" style="fill: #1f77b4; stroke: #1f77b4"/>
     <use xlink:href="#m846a9254a5" x="92.290909" y="89.28" style="fill: #1f77b4; stroke: #1f77b4"/>
     <use xlink:href="#m846a9254a5" x="478.993774" y="492.280593" style="fill: #1f77b4; stroke: #1f77b4"/>
     <use xlink:href="#m846a9254a5" x="380.287055" y="479.555964" style="fill: #1f77b4; stroke: #1f77b4"/>
     <use xlink:href="#m846a9254a5" x="368.220511" y="476.75181" style="fill: #1f77b4; stroke: #1f77b4"/>
     <use xlink:href="#m846a9254a5" x="237.352272" y="401.201662" style="fill: #1f77b4; stroke: #1f77b4"/>
     <use xlink:href="#m846a9254a5" x="367.909887" y="476.639644" style="fill: #1f77b4; stroke: #1f77b4"/>
     <use xlink:href="#m846a9254a5" x="366.906333" y="476.240831" style="fill: #1f77b4; stroke: #1f77b4"/>
     <use xlink:href="#m846a9254a5" x="249.729439" y="410.137567" style="fill: #1f77b4; stroke: #1f77b4"/>
     <use xlink:href="#m846a9254a5" x="239.956734" y="403.158338" style="fill: #1f77b4; stroke: #1f77b4"/>
     <use xlink:href="#m846a9254a5" x="206.624399" y="368.000475" style="fill: #1f77b4; stroke: #1f77b4"/>
     <use xlink:href="#m846a9254a5" x="397.610311" y="479.867537" style="fill: #1f77b4; stroke: #1f77b4"/>
     <use xlink:href="#m846a9254a5" x="199.814568" y="366.043798" style="fill: #1f77b4; stroke: #1f77b4"/>
     <use xlink:href="#m846a9254a5" x="364.994802" y="468.227181" style="fill: #1f77b4; stroke: #1f77b4"/>
     <use xlink:href="#m846a9254a5" x="193.171995" y="352.309674" style="fill: #1f77b4; stroke: #1f77b4"/>
     <use xlink:href="#m846a9254a5" x="195.394151" y="357.69365" style="fill: #1f77b4; stroke: #1f77b4"/>
     <use xlink:href="#m846a9254a5" x="198.61986" y="364.174362" style="fill: #1f77b4; stroke: #1f77b4"/>
     <use xlink:href="#m846a9254a5" x="228.86985" y="387.442611" style="fill: #1f77b4; stroke: #1f77b4"/>
     <use xlink:href="#m846a9254a5" x="458.731538" y="491.420653" style="fill: #1f77b4; stroke: #1f77b4"/>
     <use xlink:href="#m846a9254a5" x="189.635661" y="348.134599" style="fill: #1f77b4; stroke: #1f77b4"/>
     <use xlink:href="#m846a9254a5" x="98.622858" y="132.713234" style="fill: #1f77b4; stroke: #1f77b4"/>
     <use xlink:href="#m846a9254a5" x="104.835336" y="141.262789" style="fill: #1f77b4; stroke: #1f77b4"/>
     <use xlink:href="#m846a9254a5" x="94.465276" y="119.377923" style="fill: #1f77b4; stroke: #1f77b4"/>
     <use xlink:href="#m846a9254a5" x="398.35103" y="479.929852" style="fill: #1f77b4; stroke: #1f77b4"/>
     <use xlink:href="#m846a9254a5" x="396.845699" y="479.668131" style="fill: #1f77b4; stroke: #1f77b4"/>
     <use xlink:href="#m846a9254a5" x="126.101126" y="181.131632" style="fill: #1f77b4; stroke: #1f77b4"/>
     <use xlink:href="#m846a9254a5" x="133.723359" y="192.99632" style="fill: #1f77b4; stroke: #1f77b4"/>
     <use xlink:href="#m846a9254a5" x="125.886079" y="179.935193" style="fill: #1f77b4; stroke: #1f77b4"/>
     <use xlink:href="#m846a9254a5" x="146.435045" y="225.013531" style="fill: #1f77b4; stroke: #1f77b4"/>
     <use xlink:href="#m846a9254a5" x="143.328806" y="199.414718" style="fill: #1f77b4; stroke: #1f77b4"/>
     <use xlink:href="#m846a9254a5" x="143.304912" y="199.402255" style="fill: #1f77b4; stroke: #1f77b4"/>
     <use xlink:href="#m846a9254a5" x="145.574855" y="222.209377" style="fill: #1f77b4; stroke: #1f77b4"/>
    </g>
   </g>
   <g id="matplotlib.axis_1">
    <g id="xtick_1">
     <g id="line2d_1">
      <defs>
       <path id="m9a64c4bb77" d="M 0 0 
L 0 3.5 
" style="stroke: #000000; stroke-width: 0.8"/>
      </defs>
      <g>
       <use xlink:href="#m9a64c4bb77" x="91.550191" y="512.64" style="stroke: #000000; stroke-width: 0.8"/>
      </g>
     </g>
     <g id="text_1">
      <!-- 4250 -->
      <g transform="translate(75.007691 529.517969)scale(0.13 -0.13)">
       <defs>
        <path id="DejaVuSans-34" d="M 2419 4116 
L 825 1625 
L 2419 1625 
L 2419 4116 
z
M 2253 4666 
L 3047 4666 
L 3047 1625 
L 3713 1625 
L 3713 1100 
L 3047 1100 
L 3047 0 
L 2419 0 
L 2419 1100 
L 313 1100 
L 313 1709 
L 2253 4666 
z
" transform="scale(0.015625)"/>
        <path id="DejaVuSans-32" d="M 1228 531 
L 3431 531 
L 3431 0 
L 469 0 
L 469 531 
Q 828 903 1448 1529 
Q 2069 2156 2228 2338 
Q 2531 2678 2651 2914 
Q 2772 3150 2772 3378 
Q 2772 3750 2511 3984 
Q 2250 4219 1831 4219 
Q 1534 4219 1204 4116 
Q 875 4013 500 3803 
L 500 4441 
Q 881 4594 1212 4672 
Q 1544 4750 1819 4750 
Q 2544 4750 2975 4387 
Q 3406 4025 3406 3419 
Q 3406 3131 3298 2873 
Q 3191 2616 2906 2266 
Q 2828 2175 2409 1742 
Q 1991 1309 1228 531 
z
" transform="scale(0.015625)"/>
        <path id="DejaVuSans-35" d="M 691 4666 
L 3169 4666 
L 3169 4134 
L 1269 4134 
L 1269 2991 
Q 1406 3038 1543 3061 
Q 1681 3084 1819 3084 
Q 2600 3084 3056 2656 
Q 3513 2228 3513 1497 
Q 3513 744 3044 326 
Q 2575 -91 1722 -91 
Q 1428 -91 1123 -41 
Q 819 9 494 109 
L 494 744 
Q 775 591 1075 516 
Q 1375 441 1709 441 
Q 2250 441 2565 725 
Q 2881 1009 2881 1497 
Q 2881 1984 2565 2268 
Q 2250 2553 1709 2553 
Q 1456 2553 1204 2497 
Q 953 2441 691 2322 
L 691 4666 
z
" transform="scale(0.015625)"/>
        <path id="DejaVuSans-30" d="M 2034 4250 
Q 1547 4250 1301 3770 
Q 1056 3291 1056 2328 
Q 1056 1369 1301 889 
Q 1547 409 2034 409 
Q 2525 409 2770 889 
Q 3016 1369 3016 2328 
Q 3016 3291 2770 3770 
Q 2525 4250 2034 4250 
z
M 2034 4750 
Q 2819 4750 3233 4129 
Q 3647 3509 3647 2328 
Q 3647 1150 3233 529 
Q 2819 -91 2034 -91 
Q 1250 -91 836 529 
Q 422 1150 422 2328 
Q 422 3509 836 4129 
Q 1250 4750 2034 4750 
z
" transform="scale(0.015625)"/>
       </defs>
       <use xlink:href="#DejaVuSans-34"/>
       <use xlink:href="#DejaVuSans-32" x="63.623047"/>
       <use xlink:href="#DejaVuSans-35" x="127.246094"/>
       <use xlink:href="#DejaVuSans-30" x="190.869141"/>
      </g>
     </g>
    </g>
    <g id="xtick_2">
     <g id="line2d_2">
      <g>
       <use xlink:href="#m9a64c4bb77" x="151.285556" y="512.64" style="stroke: #000000; stroke-width: 0.8"/>
      </g>
     </g>
     <g id="text_2">
      <!-- 4500 -->
      <g transform="translate(134.743056 529.517969)scale(0.13 -0.13)">
       <use xlink:href="#DejaVuSans-34"/>
       <use xlink:href="#DejaVuSans-35" x="63.623047"/>
       <use xlink:href="#DejaVuSans-30" x="127.246094"/>
       <use xlink:href="#DejaVuSans-30" x="190.869141"/>
      </g>
     </g>
    </g>
    <g id="xtick_3">
     <g id="line2d_3">
      <g>
       <use xlink:href="#m9a64c4bb77" x="211.020922" y="512.64" style="stroke: #000000; stroke-width: 0.8"/>
      </g>
     </g>
     <g id="text_3">
      <!-- 4750 -->
      <g transform="translate(194.478422 529.517969)scale(0.13 -0.13)">
       <defs>
        <path id="DejaVuSans-37" d="M 525 4666 
L 3525 4666 
L 3525 4397 
L 1831 0 
L 1172 0 
L 2766 4134 
L 525 4134 
L 525 4666 
z
" transform="scale(0.015625)"/>
       </defs>
       <use xlink:href="#DejaVuSans-34"/>
       <use xlink:href="#DejaVuSans-37" x="63.623047"/>
       <use xlink:href="#DejaVuSans-35" x="127.246094"/>
       <use xlink:href="#DejaVuSans-30" x="190.869141"/>
      </g>
     </g>
    </g>
    <g id="xtick_4">
     <g id="line2d_4">
      <g>
       <use xlink:href="#m9a64c4bb77" x="270.756288" y="512.64" style="stroke: #000000; stroke-width: 0.8"/>
      </g>
     </g>
     <g id="text_4">
      <!-- 5000 -->
      <g transform="translate(254.213788 529.517969)scale(0.13 -0.13)">
       <use xlink:href="#DejaVuSans-35"/>
       <use xlink:href="#DejaVuSans-30" x="63.623047"/>
       <use xlink:href="#DejaVuSans-30" x="127.246094"/>
       <use xlink:href="#DejaVuSans-30" x="190.869141"/>
      </g>
     </g>
    </g>
    <g id="xtick_5">
     <g id="line2d_5">
      <g>
       <use xlink:href="#m9a64c4bb77" x="330.491654" y="512.64" style="stroke: #000000; stroke-width: 0.8"/>
      </g>
     </g>
     <g id="text_5">
      <!-- 5250 -->
      <g transform="translate(313.949154 529.517969)scale(0.13 -0.13)">
       <use xlink:href="#DejaVuSans-35"/>
       <use xlink:href="#DejaVuSans-32" x="63.623047"/>
       <use xlink:href="#DejaVuSans-35" x="127.246094"/>
       <use xlink:href="#DejaVuSans-30" x="190.869141"/>
      </g>
     </g>
    </g>
    <g id="xtick_6">
     <g id="line2d_6">
      <g>
       <use xlink:href="#m9a64c4bb77" x="390.22702" y="512.64" style="stroke: #000000; stroke-width: 0.8"/>
      </g>
     </g>
     <g id="text_6">
      <!-- 5500 -->
      <g transform="translate(373.68452 529.517969)scale(0.13 -0.13)">
       <use xlink:href="#DejaVuSans-35"/>
       <use xlink:href="#DejaVuSans-35" x="63.623047"/>
       <use xlink:href="#DejaVuSans-30" x="127.246094"/>
       <use xlink:href="#DejaVuSans-30" x="190.869141"/>
      </g>
     </g>
    </g>
    <g id="xtick_7">
     <g id="line2d_7">
      <g>
       <use xlink:href="#m9a64c4bb77" x="449.962386" y="512.64" style="stroke: #000000; stroke-width: 0.8"/>
      </g>
     </g>
     <g id="text_7">
      <!-- 5750 -->
      <g transform="translate(433.419886 529.517969)scale(0.13 -0.13)">
       <use xlink:href="#DejaVuSans-35"/>
       <use xlink:href="#DejaVuSans-37" x="63.623047"/>
       <use xlink:href="#DejaVuSans-35" x="127.246094"/>
       <use xlink:href="#DejaVuSans-30" x="190.869141"/>
      </g>
     </g>
    </g>
    <g id="xtick_8">
     <g id="line2d_8">
      <g>
       <use xlink:href="#m9a64c4bb77" x="509.697752" y="512.64" style="stroke: #000000; stroke-width: 0.8"/>
      </g>
     </g>
     <g id="text_8">
      <!-- 6000 -->
      <g transform="translate(493.155252 529.517969)scale(0.13 -0.13)">
       <defs>
        <path id="DejaVuSans-36" d="M 2113 2584 
Q 1688 2584 1439 2293 
Q 1191 2003 1191 1497 
Q 1191 994 1439 701 
Q 1688 409 2113 409 
Q 2538 409 2786 701 
Q 3034 994 3034 1497 
Q 3034 2003 2786 2293 
Q 2538 2584 2113 2584 
z
M 3366 4563 
L 3366 3988 
Q 3128 4100 2886 4159 
Q 2644 4219 2406 4219 
Q 1781 4219 1451 3797 
Q 1122 3375 1075 2522 
Q 1259 2794 1537 2939 
Q 1816 3084 2150 3084 
Q 2853 3084 3261 2657 
Q 3669 2231 3669 1497 
Q 3669 778 3244 343 
Q 2819 -91 2113 -91 
Q 1303 -91 875 529 
Q 447 1150 447 2328 
Q 447 3434 972 4092 
Q 1497 4750 2381 4750 
Q 2619 4750 2861 4703 
Q 3103 4656 3366 4563 
z
" transform="scale(0.015625)"/>
       </defs>
       <use xlink:href="#DejaVuSans-36"/>
       <use xlink:href="#DejaVuSans-30" x="63.623047"/>
       <use xlink:href="#DejaVuSans-30" x="127.246094"/>
       <use xlink:href="#DejaVuSans-30" x="190.869141"/>
      </g>
     </g>
    </g>
    <g id="text_9">
     <!-- Total traveled distance -->
     <g transform="translate(210.004687 547.619219)scale(0.15 -0.15)">
      <defs>
       <path id="DejaVuSans-54" d="M -19 4666 
L 3928 4666 
L 3928 4134 
L 2272 4134 
L 2272 0 
L 1638 0 
L 1638 4134 
L -19 4134 
L -19 4666 
z
" transform="scale(0.015625)"/>
       <path id="DejaVuSans-6f" d="M 1959 3097 
Q 1497 3097 1228 2736 
Q 959 2375 959 1747 
Q 959 1119 1226 758 
Q 1494 397 1959 397 
Q 2419 397 2687 759 
Q 2956 1122 2956 1747 
Q 2956 2369 2687 2733 
Q 2419 3097 1959 3097 
z
M 1959 3584 
Q 2709 3584 3137 3096 
Q 3566 2609 3566 1747 
Q 3566 888 3137 398 
Q 2709 -91 1959 -91 
Q 1206 -91 779 398 
Q 353 888 353 1747 
Q 353 2609 779 3096 
Q 1206 3584 1959 3584 
z
" transform="scale(0.015625)"/>
       <path id="DejaVuSans-74" d="M 1172 4494 
L 1172 3500 
L 2356 3500 
L 2356 3053 
L 1172 3053 
L 1172 1153 
Q 1172 725 1289 603 
Q 1406 481 1766 481 
L 2356 481 
L 2356 0 
L 1766 0 
Q 1100 0 847 248 
Q 594 497 594 1153 
L 594 3053 
L 172 3053 
L 172 3500 
L 594 3500 
L 594 4494 
L 1172 4494 
z
" transform="scale(0.015625)"/>
       <path id="DejaVuSans-61" d="M 2194 1759 
Q 1497 1759 1228 1600 
Q 959 1441 959 1056 
Q 959 750 1161 570 
Q 1363 391 1709 391 
Q 2188 391 2477 730 
Q 2766 1069 2766 1631 
L 2766 1759 
L 2194 1759 
z
M 3341 1997 
L 3341 0 
L 2766 0 
L 2766 531 
Q 2569 213 2275 61 
Q 1981 -91 1556 -91 
Q 1019 -91 701 211 
Q 384 513 384 1019 
Q 384 1609 779 1909 
Q 1175 2209 1959 2209 
L 2766 2209 
L 2766 2266 
Q 2766 2663 2505 2880 
Q 2244 3097 1772 3097 
Q 1472 3097 1187 3025 
Q 903 2953 641 2809 
L 641 3341 
Q 956 3463 1253 3523 
Q 1550 3584 1831 3584 
Q 2591 3584 2966 3190 
Q 3341 2797 3341 1997 
z
" transform="scale(0.015625)"/>
       <path id="DejaVuSans-6c" d="M 603 4863 
L 1178 4863 
L 1178 0 
L 603 0 
L 603 4863 
z
" transform="scale(0.015625)"/>
       <path id="DejaVuSans-20" transform="scale(0.015625)"/>
       <path id="DejaVuSans-72" d="M 2631 2963 
Q 2534 3019 2420 3045 
Q 2306 3072 2169 3072 
Q 1681 3072 1420 2755 
Q 1159 2438 1159 1844 
L 1159 0 
L 581 0 
L 581 3500 
L 1159 3500 
L 1159 2956 
Q 1341 3275 1631 3429 
Q 1922 3584 2338 3584 
Q 2397 3584 2469 3576 
Q 2541 3569 2628 3553 
L 2631 2963 
z
" transform="scale(0.015625)"/>
       <path id="DejaVuSans-76" d="M 191 3500 
L 800 3500 
L 1894 563 
L 2988 3500 
L 3597 3500 
L 2284 0 
L 1503 0 
L 191 3500 
z
" transform="scale(0.015625)"/>
       <path id="DejaVuSans-65" d="M 3597 1894 
L 3597 1613 
L 953 1613 
Q 991 1019 1311 708 
Q 1631 397 2203 397 
Q 2534 397 2845 478 
Q 3156 559 3463 722 
L 3463 178 
Q 3153 47 2828 -22 
Q 2503 -91 2169 -91 
Q 1331 -91 842 396 
Q 353 884 353 1716 
Q 353 2575 817 3079 
Q 1281 3584 2069 3584 
Q 2775 3584 3186 3129 
Q 3597 2675 3597 1894 
z
M 3022 2063 
Q 3016 2534 2758 2815 
Q 2500 3097 2075 3097 
Q 1594 3097 1305 2825 
Q 1016 2553 972 2059 
L 3022 2063 
z
" transform="scale(0.015625)"/>
       <path id="DejaVuSans-64" d="M 2906 2969 
L 2906 4863 
L 3481 4863 
L 3481 0 
L 2906 0 
L 2906 525 
Q 2725 213 2448 61 
Q 2172 -91 1784 -91 
Q 1150 -91 751 415 
Q 353 922 353 1747 
Q 353 2572 751 3078 
Q 1150 3584 1784 3584 
Q 2172 3584 2448 3432 
Q 2725 3281 2906 2969 
z
M 947 1747 
Q 947 1113 1208 752 
Q 1469 391 1925 391 
Q 2381 391 2643 752 
Q 2906 1113 2906 1747 
Q 2906 2381 2643 2742 
Q 2381 3103 1925 3103 
Q 1469 3103 1208 2742 
Q 947 2381 947 1747 
z
" transform="scale(0.015625)"/>
       <path id="DejaVuSans-69" d="M 603 3500 
L 1178 3500 
L 1178 0 
L 603 0 
L 603 3500 
z
M 603 4863 
L 1178 4863 
L 1178 4134 
L 603 4134 
L 603 4863 
z
" transform="scale(0.015625)"/>
       <path id="DejaVuSans-73" d="M 2834 3397 
L 2834 2853 
Q 2591 2978 2328 3040 
Q 2066 3103 1784 3103 
Q 1356 3103 1142 2972 
Q 928 2841 928 2578 
Q 928 2378 1081 2264 
Q 1234 2150 1697 2047 
L 1894 2003 
Q 2506 1872 2764 1633 
Q 3022 1394 3022 966 
Q 3022 478 2636 193 
Q 2250 -91 1575 -91 
Q 1294 -91 989 -36 
Q 684 19 347 128 
L 347 722 
Q 666 556 975 473 
Q 1284 391 1588 391 
Q 1994 391 2212 530 
Q 2431 669 2431 922 
Q 2431 1156 2273 1281 
Q 2116 1406 1581 1522 
L 1381 1569 
Q 847 1681 609 1914 
Q 372 2147 372 2553 
Q 372 3047 722 3315 
Q 1072 3584 1716 3584 
Q 2034 3584 2315 3537 
Q 2597 3491 2834 3397 
z
" transform="scale(0.015625)"/>
       <path id="DejaVuSans-6e" d="M 3513 2113 
L 3513 0 
L 2938 0 
L 2938 2094 
Q 2938 2591 2744 2837 
Q 2550 3084 2163 3084 
Q 1697 3084 1428 2787 
Q 1159 2491 1159 1978 
L 1159 0 
L 581 0 
L 581 3500 
L 1159 3500 
L 1159 2956 
Q 1366 3272 1645 3428 
Q 1925 3584 2291 3584 
Q 2894 3584 3203 3211 
Q 3513 2838 3513 2113 
z
" transform="scale(0.015625)"/>
       <path id="DejaVuSans-63" d="M 3122 3366 
L 3122 2828 
Q 2878 2963 2633 3030 
Q 2388 3097 2138 3097 
Q 1578 3097 1268 2742 
Q 959 2388 959 1747 
Q 959 1106 1268 751 
Q 1578 397 2138 397 
Q 2388 397 2633 464 
Q 2878 531 3122 666 
L 3122 134 
Q 2881 22 2623 -34 
Q 2366 -91 2075 -91 
Q 1284 -91 818 406 
Q 353 903 353 1747 
Q 353 2603 823 3093 
Q 1294 3584 2113 3584 
Q 2378 3584 2631 3529 
Q 2884 3475 3122 3366 
z
" transform="scale(0.015625)"/>
      </defs>
      <use xlink:href="#DejaVuSans-54"/>
      <use xlink:href="#DejaVuSans-6f" x="44.083984"/>
      <use xlink:href="#DejaVuSans-74" x="105.265625"/>
      <use xlink:href="#DejaVuSans-61" x="144.474609"/>
      <use xlink:href="#DejaVuSans-6c" x="205.753906"/>
      <use xlink:href="#DejaVuSans-20" x="233.537109"/>
      <use xlink:href="#DejaVuSans-74" x="265.324219"/>
      <use xlink:href="#DejaVuSans-72" x="304.533203"/>
      <use xlink:href="#DejaVuSans-61" x="345.646484"/>
      <use xlink:href="#DejaVuSans-76" x="406.925781"/>
      <use xlink:href="#DejaVuSans-65" x="466.105469"/>
      <use xlink:href="#DejaVuSans-6c" x="527.628906"/>
      <use xlink:href="#DejaVuSans-65" x="555.412109"/>
      <use xlink:href="#DejaVuSans-64" x="616.935547"/>
      <use xlink:href="#DejaVuSans-20" x="680.412109"/>
      <use xlink:href="#DejaVuSans-64" x="712.199219"/>
      <use xlink:href="#DejaVuSans-69" x="775.675781"/>
      <use xlink:href="#DejaVuSans-73" x="803.458984"/>
      <use xlink:href="#DejaVuSans-74" x="855.558594"/>
      <use xlink:href="#DejaVuSans-61" x="894.767578"/>
      <use xlink:href="#DejaVuSans-6e" x="956.046875"/>
      <use xlink:href="#DejaVuSans-63" x="1019.425781"/>
      <use xlink:href="#DejaVuSans-65" x="1074.40625"/>
     </g>
    </g>
   </g>
   <g id="matplotlib.axis_2">
    <g id="ytick_1">
     <g id="line2d_9">
      <defs>
       <path id="ma4c7a36bb0" d="M 0 0 
L -3.5 0 
" style="stroke: #000000; stroke-width: 0.8"/>
      </defs>
      <g>
       <use xlink:href="#ma4c7a36bb0" x="72" y="492.48" style="stroke: #000000; stroke-width: 0.8"/>
      </g>
     </g>
     <g id="text_10">
      <!-- 0 -->
      <g transform="translate(56.72875 497.418984)scale(0.13 -0.13)">
       <use xlink:href="#DejaVuSans-30"/>
      </g>
     </g>
    </g>
    <g id="ytick_2">
     <g id="line2d_10">
      <g>
       <use xlink:href="#ma4c7a36bb0" x="72" y="430.16546" style="stroke: #000000; stroke-width: 0.8"/>
      </g>
     </g>
     <g id="text_11">
      <!-- 500 -->
      <g transform="translate(40.18625 435.104444)scale(0.13 -0.13)">
       <use xlink:href="#DejaVuSans-35"/>
       <use xlink:href="#DejaVuSans-30" x="63.623047"/>
       <use xlink:href="#DejaVuSans-30" x="127.246094"/>
      </g>
     </g>
    </g>
    <g id="ytick_3">
     <g id="line2d_11">
      <g>
       <use xlink:href="#ma4c7a36bb0" x="72" y="367.85092" style="stroke: #000000; stroke-width: 0.8"/>
      </g>
     </g>
     <g id="text_12">
      <!-- 1000 -->
      <g transform="translate(31.915 372.789904)scale(0.13 -0.13)">
       <defs>
        <path id="DejaVuSans-31" d="M 794 531 
L 1825 531 
L 1825 4091 
L 703 3866 
L 703 4441 
L 1819 4666 
L 2450 4666 
L 2450 531 
L 3481 531 
L 3481 0 
L 794 0 
L 794 531 
z
" transform="scale(0.015625)"/>
       </defs>
       <use xlink:href="#DejaVuSans-31"/>
       <use xlink:href="#DejaVuSans-30" x="63.623047"/>
       <use xlink:href="#DejaVuSans-30" x="127.246094"/>
       <use xlink:href="#DejaVuSans-30" x="190.869141"/>
      </g>
     </g>
    </g>
    <g id="ytick_4">
     <g id="line2d_12">
      <g>
       <use xlink:href="#ma4c7a36bb0" x="72" y="305.53638" style="stroke: #000000; stroke-width: 0.8"/>
      </g>
     </g>
     <g id="text_13">
      <!-- 1500 -->
      <g transform="translate(31.915 310.475364)scale(0.13 -0.13)">
       <use xlink:href="#DejaVuSans-31"/>
       <use xlink:href="#DejaVuSans-35" x="63.623047"/>
       <use xlink:href="#DejaVuSans-30" x="127.246094"/>
       <use xlink:href="#DejaVuSans-30" x="190.869141"/>
      </g>
     </g>
    </g>
    <g id="ytick_5">
     <g id="line2d_13">
      <g>
       <use xlink:href="#ma4c7a36bb0" x="72" y="243.22184" style="stroke: #000000; stroke-width: 0.8"/>
      </g>
     </g>
     <g id="text_14">
      <!-- 2000 -->
      <g transform="translate(31.915 248.160824)scale(0.13 -0.13)">
       <use xlink:href="#DejaVuSans-32"/>
       <use xlink:href="#DejaVuSans-30" x="63.623047"/>
       <use xlink:href="#DejaVuSans-30" x="127.246094"/>
       <use xlink:href="#DejaVuSans-30" x="190.869141"/>
      </g>
     </g>
    </g>
    <g id="ytick_6">
     <g id="line2d_14">
      <g>
       <use xlink:href="#ma4c7a36bb0" x="72" y="180.9073" style="stroke: #000000; stroke-width: 0.8"/>
      </g>
     </g>
     <g id="text_15">
      <!-- 2500 -->
      <g transform="translate(31.915 185.846284)scale(0.13 -0.13)">
       <use xlink:href="#DejaVuSans-32"/>
       <use xlink:href="#DejaVuSans-35" x="63.623047"/>
       <use xlink:href="#DejaVuSans-30" x="127.246094"/>
       <use xlink:href="#DejaVuSans-30" x="190.869141"/>
      </g>
     </g>
    </g>
    <g id="ytick_7">
     <g id="line2d_15">
      <g>
       <use xlink:href="#ma4c7a36bb0" x="72" y="118.59276" style="stroke: #000000; stroke-width: 0.8"/>
      </g>
     </g>
     <g id="text_16">
      <!-- 3000 -->
      <g transform="translate(31.915 123.531744)scale(0.13 -0.13)">
       <defs>
        <path id="DejaVuSans-33" d="M 2597 2516 
Q 3050 2419 3304 2112 
Q 3559 1806 3559 1356 
Q 3559 666 3084 287 
Q 2609 -91 1734 -91 
Q 1441 -91 1130 -33 
Q 819 25 488 141 
L 488 750 
Q 750 597 1062 519 
Q 1375 441 1716 441 
Q 2309 441 2620 675 
Q 2931 909 2931 1356 
Q 2931 1769 2642 2001 
Q 2353 2234 1838 2234 
L 1294 2234 
L 1294 2753 
L 1863 2753 
Q 2328 2753 2575 2939 
Q 2822 3125 2822 3475 
Q 2822 3834 2567 4026 
Q 2313 4219 1838 4219 
Q 1578 4219 1281 4162 
Q 984 4106 628 3988 
L 628 4550 
Q 988 4650 1302 4700 
Q 1616 4750 1894 4750 
Q 2613 4750 3031 4423 
Q 3450 4097 3450 3541 
Q 3450 3153 3228 2886 
Q 3006 2619 2597 2516 
z
" transform="scale(0.015625)"/>
       </defs>
       <use xlink:href="#DejaVuSans-33"/>
       <use xlink:href="#DejaVuSans-30" x="63.623047"/>
       <use xlink:href="#DejaVuSans-30" x="127.246094"/>
       <use xlink:href="#DejaVuSans-30" x="190.869141"/>
      </g>
     </g>
    </g>
    <g id="text_17">
     <!-- Total waiting time -->
     <g transform="translate(24.795469 357.457734)rotate(-90)scale(0.15 -0.15)">
      <defs>
       <path id="DejaVuSans-77" d="M 269 3500 
L 844 3500 
L 1563 769 
L 2278 3500 
L 2956 3500 
L 3675 769 
L 4391 3500 
L 4966 3500 
L 4050 0 
L 3372 0 
L 2619 2869 
L 1863 0 
L 1184 0 
L 269 3500 
z
" transform="scale(0.015625)"/>
       <path id="DejaVuSans-67" d="M 2906 1791 
Q 2906 2416 2648 2759 
Q 2391 3103 1925 3103 
Q 1463 3103 1205 2759 
Q 947 2416 947 1791 
Q 947 1169 1205 825 
Q 1463 481 1925 481 
Q 2391 481 2648 825 
Q 2906 1169 2906 1791 
z
M 3481 434 
Q 3481 -459 3084 -895 
Q 2688 -1331 1869 -1331 
Q 1566 -1331 1297 -1286 
Q 1028 -1241 775 -1147 
L 775 -588 
Q 1028 -725 1275 -790 
Q 1522 -856 1778 -856 
Q 2344 -856 2625 -561 
Q 2906 -266 2906 331 
L 2906 616 
Q 2728 306 2450 153 
Q 2172 0 1784 0 
Q 1141 0 747 490 
Q 353 981 353 1791 
Q 353 2603 747 3093 
Q 1141 3584 1784 3584 
Q 2172 3584 2450 3431 
Q 2728 3278 2906 2969 
L 2906 3500 
L 3481 3500 
L 3481 434 
z
" transform="scale(0.015625)"/>
       <path id="DejaVuSans-6d" d="M 3328 2828 
Q 3544 3216 3844 3400 
Q 4144 3584 4550 3584 
Q 5097 3584 5394 3201 
Q 5691 2819 5691 2113 
L 5691 0 
L 5113 0 
L 5113 2094 
Q 5113 2597 4934 2840 
Q 4756 3084 4391 3084 
Q 3944 3084 3684 2787 
Q 3425 2491 3425 1978 
L 3425 0 
L 2847 0 
L 2847 2094 
Q 2847 2600 2669 2842 
Q 2491 3084 2119 3084 
Q 1678 3084 1418 2786 
Q 1159 2488 1159 1978 
L 1159 0 
L 581 0 
L 581 3500 
L 1159 3500 
L 1159 2956 
Q 1356 3278 1631 3431 
Q 1906 3584 2284 3584 
Q 2666 3584 2933 3390 
Q 3200 3197 3328 2828 
z
" transform="scale(0.015625)"/>
      </defs>
      <use xlink:href="#DejaVuSans-54"/>
      <use xlink:href="#DejaVuSans-6f" x="44.083984"/>
      <use xlink:href="#DejaVuSans-74" x="105.265625"/>
      <use xlink:href="#DejaVuSans-61" x="144.474609"/>
      <use xlink:href="#DejaVuSans-6c" x="205.753906"/>
      <use xlink:href="#DejaVuSans-20" x="233.537109"/>
      <use xlink:href="#DejaVuSans-77" x="265.324219"/>
      <use xlink:href="#DejaVuSans-61" x="347.111328"/>
      <use xlink:href="#DejaVuSans-69" x="408.390625"/>
      <use xlink:href="#DejaVuSans-74" x="436.173828"/>
      <use xlink:href="#DejaVuSans-69" x="475.382812"/>
      <use xlink:href="#DejaVuSans-6e" x="503.166016"/>
      <use xlink:href="#DejaVuSans-67" x="566.544922"/>
      <use xlink:href="#DejaVuSans-20" x="630.021484"/>
      <use xlink:href="#DejaVuSans-74" x="661.808594"/>
      <use xlink:href="#DejaVuSans-69" x="701.017578"/>
      <use xlink:href="#DejaVuSans-6d" x="728.800781"/>
      <use xlink:href="#DejaVuSans-65" x="826.212891"/>
     </g>
    </g>
   </g>
   <g id="patch_3">
    <path d="M 72 512.64 
L 72 69.12 
" style="fill: none; stroke: #000000; stroke-width: 0.8; stroke-linejoin: miter; stroke-linecap: square"/>
   </g>
   <g id="patch_4">
    <path d="M 518.4 512.64 
L 518.4 69.12 
" style="fill: none; stroke: #000000; stroke-width: 0.8; stroke-linejoin: miter; stroke-linecap: square"/>
   </g>
   <g id="patch_5">
    <path d="M 72 512.64 
L 518.4 512.64 
" style="fill: none; stroke: #000000; stroke-width: 0.8; stroke-linejoin: miter; stroke-linecap: square"/>
   </g>
   <g id="patch_6">
    <path d="M 72 69.12 
L 518.4 69.12 
" style="fill: none; stroke: #000000; stroke-width: 0.8; stroke-linejoin: miter; stroke-linecap: square"/>
   </g>
   <g id="text_18">
    <!-- Pareto-front of R1_2_5-200 -->
    <g transform="translate(194.632031 63.12)scale(0.15 -0.15)">
     <defs>
      <path id="DejaVuSans-50" d="M 1259 4147 
L 1259 2394 
L 2053 2394 
Q 2494 2394 2734 2622 
Q 2975 2850 2975 3272 
Q 2975 3691 2734 3919 
Q 2494 4147 2053 4147 
L 1259 4147 
z
M 628 4666 
L 2053 4666 
Q 2838 4666 3239 4311 
Q 3641 3956 3641 3272 
Q 3641 2581 3239 2228 
Q 2838 1875 2053 1875 
L 1259 1875 
L 1259 0 
L 628 0 
L 628 4666 
z
" transform="scale(0.015625)"/>
      <path id="DejaVuSans-2d" d="M 313 2009 
L 1997 2009 
L 1997 1497 
L 313 1497 
L 313 2009 
z
" transform="scale(0.015625)"/>
      <path id="DejaVuSans-66" d="M 2375 4863 
L 2375 4384 
L 1825 4384 
Q 1516 4384 1395 4259 
Q 1275 4134 1275 3809 
L 1275 3500 
L 2222 3500 
L 2222 3053 
L 1275 3053 
L 1275 0 
L 697 0 
L 697 3053 
L 147 3053 
L 147 3500 
L 697 3500 
L 697 3744 
Q 697 4328 969 4595 
Q 1241 4863 1831 4863 
L 2375 4863 
z
" transform="scale(0.015625)"/>
      <path id="DejaVuSans-52" d="M 2841 2188 
Q 3044 2119 3236 1894 
Q 3428 1669 3622 1275 
L 4263 0 
L 3584 0 
L 2988 1197 
Q 2756 1666 2539 1819 
Q 2322 1972 1947 1972 
L 1259 1972 
L 1259 0 
L 628 0 
L 628 4666 
L 2053 4666 
Q 2853 4666 3247 4331 
Q 3641 3997 3641 3322 
Q 3641 2881 3436 2590 
Q 3231 2300 2841 2188 
z
M 1259 4147 
L 1259 2491 
L 2053 2491 
Q 2509 2491 2742 2702 
Q 2975 2913 2975 3322 
Q 2975 3731 2742 3939 
Q 2509 4147 2053 4147 
L 1259 4147 
z
" transform="scale(0.015625)"/>
      <path id="DejaVuSans-5f" d="M 3263 -1063 
L 3263 -1509 
L -63 -1509 
L -63 -1063 
L 3263 -1063 
z
" transform="scale(0.015625)"/>
     </defs>
     <use xlink:href="#DejaVuSans-50"/>
     <use xlink:href="#DejaVuSans-61" x="55.802734"/>
     <use xlink:href="#DejaVuSans-72" x="117.082031"/>
     <use xlink:href="#DejaVuSans-65" x="155.945312"/>
     <use xlink:href="#DejaVuSans-74" x="217.46875"/>
     <use xlink:href="#DejaVuSans-6f" x="256.677734"/>
     <use xlink:href="#DejaVuSans-2d" x="319.734375"/>
     <use xlink:href="#DejaVuSans-66" x="355.818359"/>
     <use xlink:href="#DejaVuSans-72" x="391.023438"/>
     <use xlink:href="#DejaVuSans-6f" x="429.886719"/>
     <use xlink:href="#DejaVuSans-6e" x="491.068359"/>
     <use xlink:href="#DejaVuSans-74" x="554.447266"/>
     <use xlink:href="#DejaVuSans-20" x="593.65625"/>
     <use xlink:href="#DejaVuSans-6f" x="625.443359"/>
     <use xlink:href="#DejaVuSans-66" x="686.625"/>
     <use xlink:href="#DejaVuSans-20" x="721.830078"/>
     <use xlink:href="#DejaVuSans-52" x="753.617188"/>
     <use xlink:href="#DejaVuSans-31" x="823.099609"/>
     <use xlink:href="#DejaVuSans-5f" x="886.722656"/>
     <use xlink:href="#DejaVuSans-32" x="936.722656"/>
     <use xlink:href="#DejaVuSans-5f" x="1000.345703"/>
     <use xlink:href="#DejaVuSans-35" x="1050.345703"/>
     <use xlink:href="#DejaVuSans-2d" x="1113.96875"/>
     <use xlink:href="#DejaVuSans-32" x="1150.052734"/>
     <use xlink:href="#DejaVuSans-30" x="1213.675781"/>
     <use xlink:href="#DejaVuSans-30" x="1277.298828"/>
    </g>
   </g>
  </g>
 </g>
 <defs>
  <clipPath id="pbbfdbbbdc2">
   <rect x="72" y="69.12" width="446.4" height="443.52"/>
  </clipPath>
 </defs>
</svg>
