<?xml version="1.0" encoding="utf-8" standalone="no"?>
<!DOCTYPE svg PUBLIC "-//W3C//DTD SVG 1.1//EN"
  "http://www.w3.org/Graphics/SVG/1.1/DTD/svg11.dtd">
<svg xmlns:xlink="http://www.w3.org/1999/xlink" width="576pt" height="576pt" viewBox="0 0 576 576" xmlns="http://www.w3.org/2000/svg" version="1.1">
 <metadata>
  <rdf:RDF xmlns:dc="http://purl.org/dc/elements/1.1/" xmlns:cc="http://creativecommons.org/ns#" xmlns:rdf="http://www.w3.org/1999/02/22-rdf-syntax-ns#">
   <cc:Work>
    <dc:type rdf:resource="http://purl.org/dc/dcmitype/StillImage"/>
    <dc:date>2023-07-05T15:52:20.054244</dc:date>
    <dc:format>image/svg+xml</dc:format>
    <dc:creator>
     <cc:Agent>
      <dc:title>Matplotlib v3.5.1, https://matplotlib.org/</dc:title>
     </cc:Agent>
    </dc:creator>
   </cc:Work>
  </rdf:RDF>
 </metadata>
 <defs>
  <style type="text/css">*{stroke-linejoin: round; stroke-linecap: butt}</style>
 </defs>
 <g id="figure_1">
  <g id="patch_1">
   <path d="M 0 576 
L 576 576 
L 576 0 
L 0 0 
z
" style="fill: #ffffff"/>
  </g>
  <g id="axes_1">
   <g id="patch_2">
    <path d="M 72 512.64 
L 518.4 512.64 
L 518.4 69.12 
L 72 69.12 
z
" style="fill: #ffffff"/>
   </g>
   <g id="PathCollection_1">
    <defs>
     <path id="m42842d4b63" d="M 0 3 
C 0.795609 3 1.55874 2.683901 2.12132 2.12132 
C 2.683901 1.55874 3 0.795609 3 0 
C 3 -0.795609 2.683901 -1.55874 2.12132 -2.12132 
C 1.55874 -2.683901 0.795609 -3 0 -3 
C -0.795609 -3 -1.55874 -2.683901 -2.12132 -2.12132 
C -2.683901 -1.55874 -3 -0.795609 -3 0 
C -3 0.795609 -2.683901 1.55874 -2.12132 2.12132 
C -1.55874 2.683901 -0.795609 3 0 3 
z
" style="stroke: #1f77b4"/>
    </defs>
    <g clip-path="url(#pc04b35f67f)">
     <use xlink:href="#m42842d4b63" x="113.830805" y="110.613921" style="fill: #1f77b4; stroke: #1f77b4"/>
     <use xlink:href="#m42842d4b63" x="95.894542" y="101.624785" style="fill: #1f77b4; stroke: #1f77b4"/>
     <use xlink:href="#m42842d4b63" x="92.290909" y="89.28" style="fill: #1f77b4; stroke: #1f77b4"/>
     <use xlink:href="#m42842d4b63" x="98.023961" y="102.647035" style="fill: #1f77b4; stroke: #1f77b4"/>
     <use xlink:href="#m42842d4b63" x="128.245335" y="168.171063" style="fill: #1f77b4; stroke: #1f77b4"/>
     <use xlink:href="#m42842d4b63" x="132.586075" y="183.027028" style="fill: #1f77b4; stroke: #1f77b4"/>
     <use xlink:href="#m42842d4b63" x="463.87458" y="484.546448" style="fill: #1f77b4; stroke: #1f77b4"/>
     <use xlink:href="#m42842d4b63" x="469.525732" y="486.146492" style="fill: #1f77b4; stroke: #1f77b4"/>
     <use xlink:href="#m42842d4b63" x="311.621099" y="416.311234" style="fill: #1f77b4; stroke: #1f77b4"/>
     <use xlink:href="#m42842d4b63" x="430.622879" y="475.9351" style="fill: #1f77b4; stroke: #1f77b4"/>
     <use xlink:href="#m42842d4b63" x="491.884634" y="492.268883" style="fill: #1f77b4; stroke: #1f77b4"/>
     <use xlink:href="#m42842d4b63" x="483.121255" y="491.157741" style="fill: #1f77b4; stroke: #1f77b4"/>
     <use xlink:href="#m42842d4b63" x="489.263811" y="491.991098" style="fill: #1f77b4; stroke: #1f77b4"/>
     <use xlink:href="#m42842d4b63" x="437.42064" y="479.079631" style="fill: #1f77b4; stroke: #1f77b4"/>
     <use xlink:href="#m42842d4b63" x="431.523787" y="478.112937" style="fill: #1f77b4; stroke: #1f77b4"/>
     <use xlink:href="#m42842d4b63" x="461.417558" y="483.70198" style="fill: #1f77b4; stroke: #1f77b4"/>
     <use xlink:href="#m42842d4b63" x="385.495569" y="457.979049" style="fill: #1f77b4; stroke: #1f77b4"/>
     <use xlink:href="#m42842d4b63" x="384.594661" y="457.856824" style="fill: #1f77b4; stroke: #1f77b4"/>
     <use xlink:href="#m42842d4b63" x="465.594496" y="485.024239" style="fill: #1f77b4; stroke: #1f77b4"/>
     <use xlink:href="#m42842d4b63" x="385.986974" y="458.53462" style="fill: #1f77b4; stroke: #1f77b4"/>
     <use xlink:href="#m42842d4b63" x="291.309715" y="410.099952" style="fill: #1f77b4; stroke: #1f77b4"/>
     <use xlink:href="#m42842d4b63" x="295.24095" y="411.911113" style="fill: #1f77b4; stroke: #1f77b4"/>
     <use xlink:href="#m42842d4b63" x="196.960059" y="313.252839" style="fill: #1f77b4; stroke: #1f77b4"/>
     <use xlink:href="#m42842d4b63" x="247.083313" y="373.78784" style="fill: #1f77b4; stroke: #1f77b4"/>
     <use xlink:href="#m42842d4b63" x="287.542281" y="408.111008" style="fill: #1f77b4; stroke: #1f77b4"/>
     <use xlink:href="#m42842d4b63" x="359.533034" y="447.078749" style="fill: #1f77b4; stroke: #1f77b4"/>
     <use xlink:href="#m42842d4b63" x="195.649647" y="311.863912" style="fill: #1f77b4; stroke: #1f77b4"/>
     <use xlink:href="#m42842d4b63" x="295.486653" y="413.266706" style="fill: #1f77b4; stroke: #1f77b4"/>
     <use xlink:href="#m42842d4b63" x="183.282635" y="283.985366" style="fill: #1f77b4; stroke: #1f77b4"/>
     <use xlink:href="#m42842d4b63" x="293.521035" y="411.188871" style="fill: #1f77b4; stroke: #1f77b4"/>
     <use xlink:href="#m42842d4b63" x="359.860637" y="448.367673" style="fill: #1f77b4; stroke: #1f77b4"/>
     <use xlink:href="#m42842d4b63" x="289.6717" y="409.777721" style="fill: #1f77b4; stroke: #1f77b4"/>
     <use xlink:href="#m42842d4b63" x="355.356096" y="446.578735" style="fill: #1f77b4; stroke: #1f77b4"/>
     <use xlink:href="#m42842d4b63" x="283.774846" y="406.610967" style="fill: #1f77b4; stroke: #1f77b4"/>
     <use xlink:href="#m42842d4b63" x="243.971085" y="372.521139" style="fill: #1f77b4; stroke: #1f77b4"/>
     <use xlink:href="#m42842d4b63" x="184.593047" y="285.374293" style="fill: #1f77b4; stroke: #1f77b4"/>
     <use xlink:href="#m42842d4b63" x="399.091093" y="465.412587" style="fill: #1f77b4; stroke: #1f77b4"/>
     <use xlink:href="#m42842d4b63" x="440.450968" y="483.690869" style="fill: #1f77b4; stroke: #1f77b4"/>
     <use xlink:href="#m42842d4b63" x="406.54406" y="467.168191" style="fill: #1f77b4; stroke: #1f77b4"/>
     <use xlink:href="#m42842d4b63" x="406.216457" y="467.123746" style="fill: #1f77b4; stroke: #1f77b4"/>
     <use xlink:href="#m42842d4b63" x="417.436859" y="470.723845" style="fill: #1f77b4; stroke: #1f77b4"/>
     <use xlink:href="#m42842d4b63" x="423.497514" y="472.279443" style="fill: #1f77b4; stroke: #1f77b4"/>
     <use xlink:href="#m42842d4b63" x="340.122558" y="443.734212" style="fill: #1f77b4; stroke: #1f77b4"/>
     <use xlink:href="#m42842d4b63" x="360.352041" y="456.979022" style="fill: #1f77b4; stroke: #1f77b4"/>
     <use xlink:href="#m42842d4b63" x="419.975782" y="471.190524" style="fill: #1f77b4; stroke: #1f77b4"/>
     <use xlink:href="#m42842d4b63" x="425.790735" y="474.679509" style="fill: #1f77b4; stroke: #1f77b4"/>
     <use xlink:href="#m42842d4b63" x="388.607797" y="459.490202" style="fill: #1f77b4; stroke: #1f77b4"/>
     <use xlink:href="#m42842d4b63" x="427.183047" y="475.612869" style="fill: #1f77b4; stroke: #1f77b4"/>
     <use xlink:href="#m42842d4b63" x="415.143638" y="470.523839" style="fill: #1f77b4; stroke: #1f77b4"/>
     <use xlink:href="#m42842d4b63" x="472.146555" y="489.19102" style="fill: #1f77b4; stroke: #1f77b4"/>
     <use xlink:href="#m42842d4b63" x="389.508706" y="461.66804" style="fill: #1f77b4; stroke: #1f77b4"/>
     <use xlink:href="#m42842d4b63" x="497.617686" y="492.40222" style="fill: #1f77b4; stroke: #1f77b4"/>
     <use xlink:href="#m42842d4b63" x="388.9354" y="461.423589" style="fill: #1f77b4; stroke: #1f77b4"/>
     <use xlink:href="#m42842d4b63" x="479.27192" y="490.279939" style="fill: #1f77b4; stroke: #1f77b4"/>
     <use xlink:href="#m42842d4b63" x="487.216292" y="491.413304" style="fill: #1f77b4; stroke: #1f77b4"/>
     <use xlink:href="#m42842d4b63" x="498.109091" y="492.48" style="fill: #1f77b4; stroke: #1f77b4"/>
     <use xlink:href="#m42842d4b63" x="477.633905" y="490.179937" style="fill: #1f77b4; stroke: #1f77b4"/>
     <use xlink:href="#m42842d4b63" x="480.664233" y="490.768842" style="fill: #1f77b4; stroke: #1f77b4"/>
     <use xlink:href="#m42842d4b63" x="382.792845" y="457.834601" style="fill: #1f77b4; stroke: #1f77b4"/>
     <use xlink:href="#m42842d4b63" x="471.57325" y="487.568754" style="fill: #1f77b4; stroke: #1f77b4"/>
     <use xlink:href="#m42842d4b63" x="493.60455" y="492.313329" style="fill: #1f77b4; stroke: #1f77b4"/>
     <use xlink:href="#m42842d4b63" x="480.090927" y="490.579948" style="fill: #1f77b4; stroke: #1f77b4"/>
     <use xlink:href="#m42842d4b63" x="390.082011" y="461.90138" style="fill: #1f77b4; stroke: #1f77b4"/>
     <use xlink:href="#m42842d4b63" x="247.902321" y="375.787895" style="fill: #1f77b4; stroke: #1f77b4"/>
     <use xlink:href="#m42842d4b63" x="207.361453" y="330.975549" style="fill: #1f77b4; stroke: #1f77b4"/>
     <use xlink:href="#m42842d4b63" x="205.805339" y="328.275475" style="fill: #1f77b4; stroke: #1f77b4"/>
     <use xlink:href="#m42842d4b63" x="225.297716" y="359.054101" style="fill: #1f77b4; stroke: #1f77b4"/>
     <use xlink:href="#m42842d4b63" x="309.000275" y="413.544491" style="fill: #1f77b4; stroke: #1f77b4"/>
     <use xlink:href="#m42842d4b63" x="235.862912" y="367.409887" style="fill: #1f77b4; stroke: #1f77b4"/>
     <use xlink:href="#m42842d4b63" x="233.160187" y="367.187658" style="fill: #1f77b4; stroke: #1f77b4"/>
     <use xlink:href="#m42842d4b63" x="241.022658" y="371.787785" style="fill: #1f77b4; stroke: #1f77b4"/>
     <use xlink:href="#m42842d4b63" x="237.582827" y="370.009958" style="fill: #1f77b4; stroke: #1f77b4"/>
     <use xlink:href="#m42842d4b63" x="140.776149" y="228.772733" style="fill: #1f77b4; stroke: #1f77b4"/>
     <use xlink:href="#m42842d4b63" x="146.3454" y="245.128739" style="fill: #1f77b4; stroke: #1f77b4"/>
     <use xlink:href="#m42842d4b63" x="315.142831" y="425.455931" style="fill: #1f77b4; stroke: #1f77b4"/>
     <use xlink:href="#m42842d4b63" x="225.543418" y="362.931986" style="fill: #1f77b4; stroke: #1f77b4"/>
     <use xlink:href="#m42842d4b63" x="145.772094" y="245.050959" style="fill: #1f77b4; stroke: #1f77b4"/>
     <use xlink:href="#m42842d4b63" x="252.488762" y="383.89923" style="fill: #1f77b4; stroke: #1f77b4"/>
     <use xlink:href="#m42842d4b63" x="261.661646" y="395.65511" style="fill: #1f77b4; stroke: #1f77b4"/>
     <use xlink:href="#m42842d4b63" x="145.526392" y="245.017625" style="fill: #1f77b4; stroke: #1f77b4"/>
     <use xlink:href="#m42842d4b63" x="157.893404" y="272.896171" style="fill: #1f77b4; stroke: #1f77b4"/>
     <use xlink:href="#m42842d4b63" x="139.957142" y="228.661619" style="fill: #1f77b4; stroke: #1f77b4"/>
     <use xlink:href="#m42842d4b63" x="313.504816" y="422.444737" style="fill: #1f77b4; stroke: #1f77b4"/>
     <use xlink:href="#m42842d4b63" x="140.202844" y="228.694953" style="fill: #1f77b4; stroke: #1f77b4"/>
     <use xlink:href="#m42842d4b63" x="263.872966" y="399.733" style="fill: #1f77b4; stroke: #1f77b4"/>
     <use xlink:href="#m42842d4b63" x="226.362425" y="364.176464" style="fill: #1f77b4; stroke: #1f77b4"/>
     <use xlink:href="#m42842d4b63" x="273.045849" y="404.999812" style="fill: #1f77b4; stroke: #1f77b4"/>
     <use xlink:href="#m42842d4b63" x="323.578607" y="436.689574" style="fill: #1f77b4; stroke: #1f77b4"/>
     <use xlink:href="#m42842d4b63" x="254.700083" y="391.810559" style="fill: #1f77b4; stroke: #1f77b4"/>
     <use xlink:href="#m42842d4b63" x="334.88091" y="439.634099" style="fill: #1f77b4; stroke: #1f77b4"/>
     <use xlink:href="#m42842d4b63" x="323.414806" y="436.589571" style="fill: #1f77b4; stroke: #1f77b4"/>
     <use xlink:href="#m42842d4b63" x="319.893074" y="434.978415" style="fill: #1f77b4; stroke: #1f77b4"/>
     <use xlink:href="#m42842d4b63" x="155.927786" y="267.39602" style="fill: #1f77b4; stroke: #1f77b4"/>
     <use xlink:href="#m42842d4b63" x="316.780846" y="433.422817" style="fill: #1f77b4; stroke: #1f77b4"/>
    </g>
   </g>
   <g id="matplotlib.axis_1">
    <g id="xtick_1">
     <g id="line2d_1">
      <defs>
       <path id="m474f129000" d="M 0 0 
L 0 3.5 
" style="stroke: #000000; stroke-width: 0.8"/>
      </defs>
      <g>
       <use xlink:href="#m474f129000" x="118.744849" y="512.64" style="stroke: #000000; stroke-width: 0.8"/>
      </g>
     </g>
     <g id="text_1">
      <!-- 2100 -->
      <g transform="translate(102.202349 529.517969)scale(0.13 -0.13)">
       <defs>
        <path id="DejaVuSans-32" d="M 1228 531 
L 3431 531 
L 3431 0 
L 469 0 
L 469 531 
Q 828 903 1448 1529 
Q 2069 2156 2228 2338 
Q 2531 2678 2651 2914 
Q 2772 3150 2772 3378 
Q 2772 3750 2511 3984 
Q 2250 4219 1831 4219 
Q 1534 4219 1204 4116 
Q 875 4013 500 3803 
L 500 4441 
Q 881 4594 1212 4672 
Q 1544 4750 1819 4750 
Q 2544 4750 2975 4387 
Q 3406 4025 3406 3419 
Q 3406 3131 3298 2873 
Q 3191 2616 2906 2266 
Q 2828 2175 2409 1742 
Q 1991 1309 1228 531 
z
" transform="scale(0.015625)"/>
        <path id="DejaVuSans-31" d="M 794 531 
L 1825 531 
L 1825 4091 
L 703 3866 
L 703 4441 
L 1819 4666 
L 2450 4666 
L 2450 531 
L 3481 531 
L 3481 0 
L 794 0 
L 794 531 
z
" transform="scale(0.015625)"/>
        <path id="DejaVuSans-30" d="M 2034 4250 
Q 1547 4250 1301 3770 
Q 1056 3291 1056 2328 
Q 1056 1369 1301 889 
Q 1547 409 2034 409 
Q 2525 409 2770 889 
Q 3016 1369 3016 2328 
Q 3016 3291 2770 3770 
Q 2525 4250 2034 4250 
z
M 2034 4750 
Q 2819 4750 3233 4129 
Q 3647 3509 3647 2328 
Q 3647 1150 3233 529 
Q 2819 -91 2034 -91 
Q 1250 -91 836 529 
Q 422 1150 422 2328 
Q 422 3509 836 4129 
Q 1250 4750 2034 4750 
z
" transform="scale(0.015625)"/>
       </defs>
       <use xlink:href="#DejaVuSans-32"/>
       <use xlink:href="#DejaVuSans-31" x="63.623047"/>
       <use xlink:href="#DejaVuSans-30" x="127.246094"/>
       <use xlink:href="#DejaVuSans-30" x="190.869141"/>
      </g>
     </g>
    </g>
    <g id="xtick_2">
     <g id="line2d_2">
      <g>
       <use xlink:href="#m474f129000" x="200.645592" y="512.64" style="stroke: #000000; stroke-width: 0.8"/>
      </g>
     </g>
     <g id="text_2">
      <!-- 2200 -->
      <g transform="translate(184.103092 529.517969)scale(0.13 -0.13)">
       <use xlink:href="#DejaVuSans-32"/>
       <use xlink:href="#DejaVuSans-32" x="63.623047"/>
       <use xlink:href="#DejaVuSans-30" x="127.246094"/>
       <use xlink:href="#DejaVuSans-30" x="190.869141"/>
      </g>
     </g>
    </g>
    <g id="xtick_3">
     <g id="line2d_3">
      <g>
       <use xlink:href="#m474f129000" x="282.546335" y="512.64" style="stroke: #000000; stroke-width: 0.8"/>
      </g>
     </g>
     <g id="text_3">
      <!-- 2300 -->
      <g transform="translate(266.003835 529.517969)scale(0.13 -0.13)">
       <defs>
        <path id="DejaVuSans-33" d="M 2597 2516 
Q 3050 2419 3304 2112 
Q 3559 1806 3559 1356 
Q 3559 666 3084 287 
Q 2609 -91 1734 -91 
Q 1441 -91 1130 -33 
Q 819 25 488 141 
L 488 750 
Q 750 597 1062 519 
Q 1375 441 1716 441 
Q 2309 441 2620 675 
Q 2931 909 2931 1356 
Q 2931 1769 2642 2001 
Q 2353 2234 1838 2234 
L 1294 2234 
L 1294 2753 
L 1863 2753 
Q 2328 2753 2575 2939 
Q 2822 3125 2822 3475 
Q 2822 3834 2567 4026 
Q 2313 4219 1838 4219 
Q 1578 4219 1281 4162 
Q 984 4106 628 3988 
L 628 4550 
Q 988 4650 1302 4700 
Q 1616 4750 1894 4750 
Q 2613 4750 3031 4423 
Q 3450 4097 3450 3541 
Q 3450 3153 3228 2886 
Q 3006 2619 2597 2516 
z
" transform="scale(0.015625)"/>
       </defs>
       <use xlink:href="#DejaVuSans-32"/>
       <use xlink:href="#DejaVuSans-33" x="63.623047"/>
       <use xlink:href="#DejaVuSans-30" x="127.246094"/>
       <use xlink:href="#DejaVuSans-30" x="190.869141"/>
      </g>
     </g>
    </g>
    <g id="xtick_4">
     <g id="line2d_4">
      <g>
       <use xlink:href="#m474f129000" x="364.447078" y="512.64" style="stroke: #000000; stroke-width: 0.8"/>
      </g>
     </g>
     <g id="text_4">
      <!-- 2400 -->
      <g transform="translate(347.904578 529.517969)scale(0.13 -0.13)">
       <defs>
        <path id="DejaVuSans-34" d="M 2419 4116 
L 825 1625 
L 2419 1625 
L 2419 4116 
z
M 2253 4666 
L 3047 4666 
L 3047 1625 
L 3713 1625 
L 3713 1100 
L 3047 1100 
L 3047 0 
L 2419 0 
L 2419 1100 
L 313 1100 
L 313 1709 
L 2253 4666 
z
" transform="scale(0.015625)"/>
       </defs>
       <use xlink:href="#DejaVuSans-32"/>
       <use xlink:href="#DejaVuSans-34" x="63.623047"/>
       <use xlink:href="#DejaVuSans-30" x="127.246094"/>
       <use xlink:href="#DejaVuSans-30" x="190.869141"/>
      </g>
     </g>
    </g>
    <g id="xtick_5">
     <g id="line2d_5">
      <g>
       <use xlink:href="#m474f129000" x="446.347821" y="512.64" style="stroke: #000000; stroke-width: 0.8"/>
      </g>
     </g>
     <g id="text_5">
      <!-- 2500 -->
      <g transform="translate(429.805321 529.517969)scale(0.13 -0.13)">
       <defs>
        <path id="DejaVuSans-35" d="M 691 4666 
L 3169 4666 
L 3169 4134 
L 1269 4134 
L 1269 2991 
Q 1406 3038 1543 3061 
Q 1681 3084 1819 3084 
Q 2600 3084 3056 2656 
Q 3513 2228 3513 1497 
Q 3513 744 3044 326 
Q 2575 -91 1722 -91 
Q 1428 -91 1123 -41 
Q 819 9 494 109 
L 494 744 
Q 775 591 1075 516 
Q 1375 441 1709 441 
Q 2250 441 2565 725 
Q 2881 1009 2881 1497 
Q 2881 1984 2565 2268 
Q 2250 2553 1709 2553 
Q 1456 2553 1204 2497 
Q 953 2441 691 2322 
L 691 4666 
z
" transform="scale(0.015625)"/>
       </defs>
       <use xlink:href="#DejaVuSans-32"/>
       <use xlink:href="#DejaVuSans-35" x="63.623047"/>
       <use xlink:href="#DejaVuSans-30" x="127.246094"/>
       <use xlink:href="#DejaVuSans-30" x="190.869141"/>
      </g>
     </g>
    </g>
    <g id="text_6">
     <!-- Total traveled distance -->
     <g transform="translate(210.004687 547.619219)scale(0.15 -0.15)">
      <defs>
       <path id="DejaVuSans-54" d="M -19 4666 
L 3928 4666 
L 3928 4134 
L 2272 4134 
L 2272 0 
L 1638 0 
L 1638 4134 
L -19 4134 
L -19 4666 
z
" transform="scale(0.015625)"/>
       <path id="DejaVuSans-6f" d="M 1959 3097 
Q 1497 3097 1228 2736 
Q 959 2375 959 1747 
Q 959 1119 1226 758 
Q 1494 397 1959 397 
Q 2419 397 2687 759 
Q 2956 1122 2956 1747 
Q 2956 2369 2687 2733 
Q 2419 3097 1959 3097 
z
M 1959 3584 
Q 2709 3584 3137 3096 
Q 3566 2609 3566 1747 
Q 3566 888 3137 398 
Q 2709 -91 1959 -91 
Q 1206 -91 779 398 
Q 353 888 353 1747 
Q 353 2609 779 3096 
Q 1206 3584 1959 3584 
z
" transform="scale(0.015625)"/>
       <path id="DejaVuSans-74" d="M 1172 4494 
L 1172 3500 
L 2356 3500 
L 2356 3053 
L 1172 3053 
L 1172 1153 
Q 1172 725 1289 603 
Q 1406 481 1766 481 
L 2356 481 
L 2356 0 
L 1766 0 
Q 1100 0 847 248 
Q 594 497 594 1153 
L 594 3053 
L 172 3053 
L 172 3500 
L 594 3500 
L 594 4494 
L 1172 4494 
z
" transform="scale(0.015625)"/>
       <path id="DejaVuSans-61" d="M 2194 1759 
Q 1497 1759 1228 1600 
Q 959 1441 959 1056 
Q 959 750 1161 570 
Q 1363 391 1709 391 
Q 2188 391 2477 730 
Q 2766 1069 2766 1631 
L 2766 1759 
L 2194 1759 
z
M 3341 1997 
L 3341 0 
L 2766 0 
L 2766 531 
Q 2569 213 2275 61 
Q 1981 -91 1556 -91 
Q 1019 -91 701 211 
Q 384 513 384 1019 
Q 384 1609 779 1909 
Q 1175 2209 1959 2209 
L 2766 2209 
L 2766 2266 
Q 2766 2663 2505 2880 
Q 2244 3097 1772 3097 
Q 1472 3097 1187 3025 
Q 903 2953 641 2809 
L 641 3341 
Q 956 3463 1253 3523 
Q 1550 3584 1831 3584 
Q 2591 3584 2966 3190 
Q 3341 2797 3341 1997 
z
" transform="scale(0.015625)"/>
       <path id="DejaVuSans-6c" d="M 603 4863 
L 1178 4863 
L 1178 0 
L 603 0 
L 603 4863 
z
" transform="scale(0.015625)"/>
       <path id="DejaVuSans-20" transform="scale(0.015625)"/>
       <path id="DejaVuSans-72" d="M 2631 2963 
Q 2534 3019 2420 3045 
Q 2306 3072 2169 3072 
Q 1681 3072 1420 2755 
Q 1159 2438 1159 1844 
L 1159 0 
L 581 0 
L 581 3500 
L 1159 3500 
L 1159 2956 
Q 1341 3275 1631 3429 
Q 1922 3584 2338 3584 
Q 2397 3584 2469 3576 
Q 2541 3569 2628 3553 
L 2631 2963 
z
" transform="scale(0.015625)"/>
       <path id="DejaVuSans-76" d="M 191 3500 
L 800 3500 
L 1894 563 
L 2988 3500 
L 3597 3500 
L 2284 0 
L 1503 0 
L 191 3500 
z
" transform="scale(0.015625)"/>
       <path id="DejaVuSans-65" d="M 3597 1894 
L 3597 1613 
L 953 1613 
Q 991 1019 1311 708 
Q 1631 397 2203 397 
Q 2534 397 2845 478 
Q 3156 559 3463 722 
L 3463 178 
Q 3153 47 2828 -22 
Q 2503 -91 2169 -91 
Q 1331 -91 842 396 
Q 353 884 353 1716 
Q 353 2575 817 3079 
Q 1281 3584 2069 3584 
Q 2775 3584 3186 3129 
Q 3597 2675 3597 1894 
z
M 3022 2063 
Q 3016 2534 2758 2815 
Q 2500 3097 2075 3097 
Q 1594 3097 1305 2825 
Q 1016 2553 972 2059 
L 3022 2063 
z
" transform="scale(0.015625)"/>
       <path id="DejaVuSans-64" d="M 2906 2969 
L 2906 4863 
L 3481 4863 
L 3481 0 
L 2906 0 
L 2906 525 
Q 2725 213 2448 61 
Q 2172 -91 1784 -91 
Q 1150 -91 751 415 
Q 353 922 353 1747 
Q 353 2572 751 3078 
Q 1150 3584 1784 3584 
Q 2172 3584 2448 3432 
Q 2725 3281 2906 2969 
z
M 947 1747 
Q 947 1113 1208 752 
Q 1469 391 1925 391 
Q 2381 391 2643 752 
Q 2906 1113 2906 1747 
Q 2906 2381 2643 2742 
Q 2381 3103 1925 3103 
Q 1469 3103 1208 2742 
Q 947 2381 947 1747 
z
" transform="scale(0.015625)"/>
       <path id="DejaVuSans-69" d="M 603 3500 
L 1178 3500 
L 1178 0 
L 603 0 
L 603 3500 
z
M 603 4863 
L 1178 4863 
L 1178 4134 
L 603 4134 
L 603 4863 
z
" transform="scale(0.015625)"/>
       <path id="DejaVuSans-73" d="M 2834 3397 
L 2834 2853 
Q 2591 2978 2328 3040 
Q 2066 3103 1784 3103 
Q 1356 3103 1142 2972 
Q 928 2841 928 2578 
Q 928 2378 1081 2264 
Q 1234 2150 1697 2047 
L 1894 2003 
Q 2506 1872 2764 1633 
Q 3022 1394 3022 966 
Q 3022 478 2636 193 
Q 2250 -91 1575 -91 
Q 1294 -91 989 -36 
Q 684 19 347 128 
L 347 722 
Q 666 556 975 473 
Q 1284 391 1588 391 
Q 1994 391 2212 530 
Q 2431 669 2431 922 
Q 2431 1156 2273 1281 
Q 2116 1406 1581 1522 
L 1381 1569 
Q 847 1681 609 1914 
Q 372 2147 372 2553 
Q 372 3047 722 3315 
Q 1072 3584 1716 3584 
Q 2034 3584 2315 3537 
Q 2597 3491 2834 3397 
z
" transform="scale(0.015625)"/>
       <path id="DejaVuSans-6e" d="M 3513 2113 
L 3513 0 
L 2938 0 
L 2938 2094 
Q 2938 2591 2744 2837 
Q 2550 3084 2163 3084 
Q 1697 3084 1428 2787 
Q 1159 2491 1159 1978 
L 1159 0 
L 581 0 
L 581 3500 
L 1159 3500 
L 1159 2956 
Q 1366 3272 1645 3428 
Q 1925 3584 2291 3584 
Q 2894 3584 3203 3211 
Q 3513 2838 3513 2113 
z
" transform="scale(0.015625)"/>
       <path id="DejaVuSans-63" d="M 3122 3366 
L 3122 2828 
Q 2878 2963 2633 3030 
Q 2388 3097 2138 3097 
Q 1578 3097 1268 2742 
Q 959 2388 959 1747 
Q 959 1106 1268 751 
Q 1578 397 2138 397 
Q 2388 397 2633 464 
Q 2878 531 3122 666 
L 3122 134 
Q 2881 22 2623 -34 
Q 2366 -91 2075 -91 
Q 1284 -91 818 406 
Q 353 903 353 1747 
Q 353 2603 823 3093 
Q 1294 3584 2113 3584 
Q 2378 3584 2631 3529 
Q 2884 3475 3122 3366 
z
" transform="scale(0.015625)"/>
      </defs>
      <use xlink:href="#DejaVuSans-54"/>
      <use xlink:href="#DejaVuSans-6f" x="44.083984"/>
      <use xlink:href="#DejaVuSans-74" x="105.265625"/>
      <use xlink:href="#DejaVuSans-61" x="144.474609"/>
      <use xlink:href="#DejaVuSans-6c" x="205.753906"/>
      <use xlink:href="#DejaVuSans-20" x="233.537109"/>
      <use xlink:href="#DejaVuSans-74" x="265.324219"/>
      <use xlink:href="#DejaVuSans-72" x="304.533203"/>
      <use xlink:href="#DejaVuSans-61" x="345.646484"/>
      <use xlink:href="#DejaVuSans-76" x="406.925781"/>
      <use xlink:href="#DejaVuSans-65" x="466.105469"/>
      <use xlink:href="#DejaVuSans-6c" x="527.628906"/>
      <use xlink:href="#DejaVuSans-65" x="555.412109"/>
      <use xlink:href="#DejaVuSans-64" x="616.935547"/>
      <use xlink:href="#DejaVuSans-20" x="680.412109"/>
      <use xlink:href="#DejaVuSans-64" x="712.199219"/>
      <use xlink:href="#DejaVuSans-69" x="775.675781"/>
      <use xlink:href="#DejaVuSans-73" x="803.458984"/>
      <use xlink:href="#DejaVuSans-74" x="855.558594"/>
      <use xlink:href="#DejaVuSans-61" x="894.767578"/>
      <use xlink:href="#DejaVuSans-6e" x="956.046875"/>
      <use xlink:href="#DejaVuSans-63" x="1019.425781"/>
      <use xlink:href="#DejaVuSans-65" x="1074.40625"/>
     </g>
    </g>
   </g>
   <g id="matplotlib.axis_2">
    <g id="ytick_1">
     <g id="line2d_6">
      <defs>
       <path id="mf36bef8884" d="M 0 0 
L -3.5 0 
" style="stroke: #000000; stroke-width: 0.8"/>
      </defs>
      <g>
       <use xlink:href="#mf36bef8884" x="72" y="492.48" style="stroke: #000000; stroke-width: 0.8"/>
      </g>
     </g>
     <g id="text_7">
      <!-- 0 -->
      <g transform="translate(56.72875 497.418984)scale(0.13 -0.13)">
       <use xlink:href="#DejaVuSans-30"/>
      </g>
     </g>
    </g>
    <g id="ytick_2">
     <g id="line2d_7">
      <g>
       <use xlink:href="#mf36bef8884" x="72" y="436.922913" style="stroke: #000000; stroke-width: 0.8"/>
      </g>
     </g>
     <g id="text_8">
      <!-- 500 -->
      <g transform="translate(40.18625 441.861898)scale(0.13 -0.13)">
       <use xlink:href="#DejaVuSans-35"/>
       <use xlink:href="#DejaVuSans-30" x="63.623047"/>
       <use xlink:href="#DejaVuSans-30" x="127.246094"/>
      </g>
     </g>
    </g>
    <g id="ytick_3">
     <g id="line2d_8">
      <g>
       <use xlink:href="#mf36bef8884" x="72" y="381.365827" style="stroke: #000000; stroke-width: 0.8"/>
      </g>
     </g>
     <g id="text_9">
      <!-- 1000 -->
      <g transform="translate(31.915 386.304811)scale(0.13 -0.13)">
       <use xlink:href="#DejaVuSans-31"/>
       <use xlink:href="#DejaVuSans-30" x="63.623047"/>
       <use xlink:href="#DejaVuSans-30" x="127.246094"/>
       <use xlink:href="#DejaVuSans-30" x="190.869141"/>
      </g>
     </g>
    </g>
    <g id="ytick_4">
     <g id="line2d_9">
      <g>
       <use xlink:href="#mf36bef8884" x="72" y="325.80874" style="stroke: #000000; stroke-width: 0.8"/>
      </g>
     </g>
     <g id="text_10">
      <!-- 1500 -->
      <g transform="translate(31.915 330.747725)scale(0.13 -0.13)">
       <use xlink:href="#DejaVuSans-31"/>
       <use xlink:href="#DejaVuSans-35" x="63.623047"/>
       <use xlink:href="#DejaVuSans-30" x="127.246094"/>
       <use xlink:href="#DejaVuSans-30" x="190.869141"/>
      </g>
     </g>
    </g>
    <g id="ytick_5">
     <g id="line2d_10">
      <g>
       <use xlink:href="#mf36bef8884" x="72" y="270.251654" style="stroke: #000000; stroke-width: 0.8"/>
      </g>
     </g>
     <g id="text_11">
      <!-- 2000 -->
      <g transform="translate(31.915 275.190638)scale(0.13 -0.13)">
       <use xlink:href="#DejaVuSans-32"/>
       <use xlink:href="#DejaVuSans-30" x="63.623047"/>
       <use xlink:href="#DejaVuSans-30" x="127.246094"/>
       <use xlink:href="#DejaVuSans-30" x="190.869141"/>
      </g>
     </g>
    </g>
    <g id="ytick_6">
     <g id="line2d_11">
      <g>
       <use xlink:href="#mf36bef8884" x="72" y="214.694567" style="stroke: #000000; stroke-width: 0.8"/>
      </g>
     </g>
     <g id="text_12">
      <!-- 2500 -->
      <g transform="translate(31.915 219.633552)scale(0.13 -0.13)">
       <use xlink:href="#DejaVuSans-32"/>
       <use xlink:href="#DejaVuSans-35" x="63.623047"/>
       <use xlink:href="#DejaVuSans-30" x="127.246094"/>
       <use xlink:href="#DejaVuSans-30" x="190.869141"/>
      </g>
     </g>
    </g>
    <g id="ytick_7">
     <g id="line2d_12">
      <g>
       <use xlink:href="#mf36bef8884" x="72" y="159.137481" style="stroke: #000000; stroke-width: 0.8"/>
      </g>
     </g>
     <g id="text_13">
      <!-- 3000 -->
      <g transform="translate(31.915 164.076465)scale(0.13 -0.13)">
       <use xlink:href="#DejaVuSans-33"/>
       <use xlink:href="#DejaVuSans-30" x="63.623047"/>
       <use xlink:href="#DejaVuSans-30" x="127.246094"/>
       <use xlink:href="#DejaVuSans-30" x="190.869141"/>
      </g>
     </g>
    </g>
    <g id="ytick_8">
     <g id="line2d_13">
      <g>
       <use xlink:href="#mf36bef8884" x="72" y="103.580394" style="stroke: #000000; stroke-width: 0.8"/>
      </g>
     </g>
     <g id="text_14">
      <!-- 3500 -->
      <g transform="translate(31.915 108.519378)scale(0.13 -0.13)">
       <use xlink:href="#DejaVuSans-33"/>
       <use xlink:href="#DejaVuSans-35" x="63.623047"/>
       <use xlink:href="#DejaVuSans-30" x="127.246094"/>
       <use xlink:href="#DejaVuSans-30" x="190.869141"/>
      </g>
     </g>
    </g>
    <g id="text_15">
     <!-- Total waiting time -->
     <g transform="translate(24.795469 357.457734)rotate(-90)scale(0.15 -0.15)">
      <defs>
       <path id="DejaVuSans-77" d="M 269 3500 
L 844 3500 
L 1563 769 
L 2278 3500 
L 2956 3500 
L 3675 769 
L 4391 3500 
L 4966 3500 
L 4050 0 
L 3372 0 
L 2619 2869 
L 1863 0 
L 1184 0 
L 269 3500 
z
" transform="scale(0.015625)"/>
       <path id="DejaVuSans-67" d="M 2906 1791 
Q 2906 2416 2648 2759 
Q 2391 3103 1925 3103 
Q 1463 3103 1205 2759 
Q 947 2416 947 1791 
Q 947 1169 1205 825 
Q 1463 481 1925 481 
Q 2391 481 2648 825 
Q 2906 1169 2906 1791 
z
M 3481 434 
Q 3481 -459 3084 -895 
Q 2688 -1331 1869 -1331 
Q 1566 -1331 1297 -1286 
Q 1028 -1241 775 -1147 
L 775 -588 
Q 1028 -725 1275 -790 
Q 1522 -856 1778 -856 
Q 2344 -856 2625 -561 
Q 2906 -266 2906 331 
L 2906 616 
Q 2728 306 2450 153 
Q 2172 0 1784 0 
Q 1141 0 747 490 
Q 353 981 353 1791 
Q 353 2603 747 3093 
Q 1141 3584 1784 3584 
Q 2172 3584 2450 3431 
Q 2728 3278 2906 2969 
L 2906 3500 
L 3481 3500 
L 3481 434 
z
" transform="scale(0.015625)"/>
       <path id="DejaVuSans-6d" d="M 3328 2828 
Q 3544 3216 3844 3400 
Q 4144 3584 4550 3584 
Q 5097 3584 5394 3201 
Q 5691 2819 5691 2113 
L 5691 0 
L 5113 0 
L 5113 2094 
Q 5113 2597 4934 2840 
Q 4756 3084 4391 3084 
Q 3944 3084 3684 2787 
Q 3425 2491 3425 1978 
L 3425 0 
L 2847 0 
L 2847 2094 
Q 2847 2600 2669 2842 
Q 2491 3084 2119 3084 
Q 1678 3084 1418 2786 
Q 1159 2488 1159 1978 
L 1159 0 
L 581 0 
L 581 3500 
L 1159 3500 
L 1159 2956 
Q 1356 3278 1631 3431 
Q 1906 3584 2284 3584 
Q 2666 3584 2933 3390 
Q 3200 3197 3328 2828 
z
" transform="scale(0.015625)"/>
      </defs>
      <use xlink:href="#DejaVuSans-54"/>
      <use xlink:href="#DejaVuSans-6f" x="44.083984"/>
      <use xlink:href="#DejaVuSans-74" x="105.265625"/>
      <use xlink:href="#DejaVuSans-61" x="144.474609"/>
      <use xlink:href="#DejaVuSans-6c" x="205.753906"/>
      <use xlink:href="#DejaVuSans-20" x="233.537109"/>
      <use xlink:href="#DejaVuSans-77" x="265.324219"/>
      <use xlink:href="#DejaVuSans-61" x="347.111328"/>
      <use xlink:href="#DejaVuSans-69" x="408.390625"/>
      <use xlink:href="#DejaVuSans-74" x="436.173828"/>
      <use xlink:href="#DejaVuSans-69" x="475.382812"/>
      <use xlink:href="#DejaVuSans-6e" x="503.166016"/>
      <use xlink:href="#DejaVuSans-67" x="566.544922"/>
      <use xlink:href="#DejaVuSans-20" x="630.021484"/>
      <use xlink:href="#DejaVuSans-74" x="661.808594"/>
      <use xlink:href="#DejaVuSans-69" x="701.017578"/>
      <use xlink:href="#DejaVuSans-6d" x="728.800781"/>
      <use xlink:href="#DejaVuSans-65" x="826.212891"/>
     </g>
    </g>
   </g>
   <g id="patch_3">
    <path d="M 72 512.64 
L 72 69.12 
" style="fill: none; stroke: #000000; stroke-width: 0.8; stroke-linejoin: miter; stroke-linecap: square"/>
   </g>
   <g id="patch_4">
    <path d="M 518.4 512.64 
L 518.4 69.12 
" style="fill: none; stroke: #000000; stroke-width: 0.8; stroke-linejoin: miter; stroke-linecap: square"/>
   </g>
   <g id="patch_5">
    <path d="M 72 512.64 
L 518.4 512.64 
" style="fill: none; stroke: #000000; stroke-width: 0.8; stroke-linejoin: miter; stroke-linecap: square"/>
   </g>
   <g id="patch_6">
    <path d="M 72 69.12 
L 518.4 69.12 
" style="fill: none; stroke: #000000; stroke-width: 0.8; stroke-linejoin: miter; stroke-linecap: square"/>
   </g>
   <g id="text_16">
    <!-- Pareto-front of R2_2_4-200 -->
    <g transform="translate(194.632031 63.12)scale(0.15 -0.15)">
     <defs>
      <path id="DejaVuSans-50" d="M 1259 4147 
L 1259 2394 
L 2053 2394 
Q 2494 2394 2734 2622 
Q 2975 2850 2975 3272 
Q 2975 3691 2734 3919 
Q 2494 4147 2053 4147 
L 1259 4147 
z
M 628 4666 
L 2053 4666 
Q 2838 4666 3239 4311 
Q 3641 3956 3641 3272 
Q 3641 2581 3239 2228 
Q 2838 1875 2053 1875 
L 1259 1875 
L 1259 0 
L 628 0 
L 628 4666 
z
" transform="scale(0.015625)"/>
      <path id="DejaVuSans-2d" d="M 313 2009 
L 1997 2009 
L 1997 1497 
L 313 1497 
L 313 2009 
z
" transform="scale(0.015625)"/>
      <path id="DejaVuSans-66" d="M 2375 4863 
L 2375 4384 
L 1825 4384 
Q 1516 4384 1395 4259 
Q 1275 4134 1275 3809 
L 1275 3500 
L 2222 3500 
L 2222 3053 
L 1275 3053 
L 1275 0 
L 697 0 
L 697 3053 
L 147 3053 
L 147 3500 
L 697 3500 
L 697 3744 
Q 697 4328 969 4595 
Q 1241 4863 1831 4863 
L 2375 4863 
z
" transform="scale(0.015625)"/>
      <path id="DejaVuSans-52" d="M 2841 2188 
Q 3044 2119 3236 1894 
Q 3428 1669 3622 1275 
L 4263 0 
L 3584 0 
L 2988 1197 
Q 2756 1666 2539 1819 
Q 2322 1972 1947 1972 
L 1259 1972 
L 1259 0 
L 628 0 
L 628 4666 
L 2053 4666 
Q 2853 4666 3247 4331 
Q 3641 3997 3641 3322 
Q 3641 2881 3436 2590 
Q 3231 2300 2841 2188 
z
M 1259 4147 
L 1259 2491 
L 2053 2491 
Q 2509 2491 2742 2702 
Q 2975 2913 2975 3322 
Q 2975 3731 2742 3939 
Q 2509 4147 2053 4147 
L 1259 4147 
z
" transform="scale(0.015625)"/>
      <path id="DejaVuSans-5f" d="M 3263 -1063 
L 3263 -1509 
L -63 -1509 
L -63 -1063 
L 3263 -1063 
z
" transform="scale(0.015625)"/>
     </defs>
     <use xlink:href="#DejaVuSans-50"/>
     <use xlink:href="#DejaVuSans-61" x="55.802734"/>
     <use xlink:href="#DejaVuSans-72" x="117.082031"/>
     <use xlink:href="#DejaVuSans-65" x="155.945312"/>
     <use xlink:href="#DejaVuSans-74" x="217.46875"/>
     <use xlink:href="#DejaVuSans-6f" x="256.677734"/>
     <use xlink:href="#DejaVuSans-2d" x="319.734375"/>
     <use xlink:href="#DejaVuSans-66" x="355.818359"/>
     <use xlink:href="#DejaVuSans-72" x="391.023438"/>
     <use xlink:href="#DejaVuSans-6f" x="429.886719"/>
     <use xlink:href="#DejaVuSans-6e" x="491.068359"/>
     <use xlink:href="#DejaVuSans-74" x="554.447266"/>
     <use xlink:href="#DejaVuSans-20" x="593.65625"/>
     <use xlink:href="#DejaVuSans-6f" x="625.443359"/>
     <use xlink:href="#DejaVuSans-66" x="686.625"/>
     <use xlink:href="#DejaVuSans-20" x="721.830078"/>
     <use xlink:href="#DejaVuSans-52" x="753.617188"/>
     <use xlink:href="#DejaVuSans-32" x="823.099609"/>
     <use xlink:href="#DejaVuSans-5f" x="886.722656"/>
     <use xlink:href="#DejaVuSans-32" x="936.722656"/>
     <use xlink:href="#DejaVuSans-5f" x="1000.345703"/>
     <use xlink:href="#DejaVuSans-34" x="1050.345703"/>
     <use xlink:href="#DejaVuSans-2d" x="1113.96875"/>
     <use xlink:href="#DejaVuSans-32" x="1150.052734"/>
     <use xlink:href="#DejaVuSans-30" x="1213.675781"/>
     <use xlink:href="#DejaVuSans-30" x="1277.298828"/>
    </g>
   </g>
  </g>
 </g>
 <defs>
  <clipPath id="pc04b35f67f">
   <rect x="72" y="69.12" width="446.4" height="443.52"/>
  </clipPath>
 </defs>
</svg>
