<?xml version="1.0" encoding="utf-8" standalone="no"?>
<!DOCTYPE svg PUBLIC "-//W3C//DTD SVG 1.1//EN"
  "http://www.w3.org/Graphics/SVG/1.1/DTD/svg11.dtd">
<svg xmlns:xlink="http://www.w3.org/1999/xlink" width="576pt" height="576pt" viewBox="0 0 576 576" xmlns="http://www.w3.org/2000/svg" version="1.1">
 <metadata>
  <rdf:RDF xmlns:dc="http://purl.org/dc/elements/1.1/" xmlns:cc="http://creativecommons.org/ns#" xmlns:rdf="http://www.w3.org/1999/02/22-rdf-syntax-ns#">
   <cc:Work>
    <dc:type rdf:resource="http://purl.org/dc/dcmitype/StillImage"/>
    <dc:date>2023-07-05T15:52:19.718399</dc:date>
    <dc:format>image/svg+xml</dc:format>
    <dc:creator>
     <cc:Agent>
      <dc:title>Matplotlib v3.5.1, https://matplotlib.org/</dc:title>
     </cc:Agent>
    </dc:creator>
   </cc:Work>
  </rdf:RDF>
 </metadata>
 <defs>
  <style type="text/css">*{stroke-linejoin: round; stroke-linecap: butt}</style>
 </defs>
 <g id="figure_1">
  <g id="patch_1">
   <path d="M 0 576 
L 576 576 
L 576 0 
L 0 0 
z
" style="fill: #ffffff"/>
  </g>
  <g id="axes_1">
   <g id="patch_2">
    <path d="M 72 512.64 
L 518.4 512.64 
L 518.4 69.12 
L 72 69.12 
z
" style="fill: #ffffff"/>
   </g>
   <g id="PathCollection_1">
    <defs>
     <path id="mfc7ed35152" d="M 0 3 
C 0.795609 3 1.55874 2.683901 2.12132 2.12132 
C 2.683901 1.55874 3 0.795609 3 0 
C 3 -0.795609 2.683901 -1.55874 2.12132 -2.12132 
C 1.55874 -2.683901 0.795609 -3 0 -3 
C -0.795609 -3 -1.55874 -2.683901 -2.12132 -2.12132 
C -2.683901 -1.55874 -3 -0.795609 -3 0 
C -3 0.795609 -2.683901 1.55874 -2.12132 2.12132 
C -1.55874 2.683901 -0.795609 3 0 3 
z
" style="stroke: #1f77b4"/>
    </defs>
    <g clip-path="url(#pe330a0afe9)">
     <use xlink:href="#mfc7ed35152" x="477.226919" y="488.971743" style="fill: #1f77b4; stroke: #1f77b4"/>
     <use xlink:href="#mfc7ed35152" x="456.276393" y="486.172981" style="fill: #1f77b4; stroke: #1f77b4"/>
     <use xlink:href="#mfc7ed35152" x="466.119381" y="487.941371" style="fill: #1f77b4; stroke: #1f77b4"/>
     <use xlink:href="#mfc7ed35152" x="467.759879" y="488.461905" style="fill: #1f77b4; stroke: #1f77b4"/>
     <use xlink:href="#mfc7ed35152" x="462.08649" y="487.805889" style="fill: #1f77b4; stroke: #1f77b4"/>
     <use xlink:href="#mfc7ed35152" x="469.947209" y="488.697215" style="fill: #1f77b4; stroke: #1f77b4"/>
     <use xlink:href="#mfc7ed35152" x="204.972612" y="379.042787" style="fill: #1f77b4; stroke: #1f77b4"/>
     <use xlink:href="#mfc7ed35152" x="209.757398" y="382.907574" style="fill: #1f77b4; stroke: #1f77b4"/>
     <use xlink:href="#mfc7ed35152" x="207.77513" y="382.344257" style="fill: #1f77b4; stroke: #1f77b4"/>
     <use xlink:href="#mfc7ed35152" x="198.103027" y="372.040534" style="fill: #1f77b4; stroke: #1f77b4"/>
     <use xlink:href="#mfc7ed35152" x="208.390317" y="382.822007" style="fill: #1f77b4; stroke: #1f77b4"/>
     <use xlink:href="#mfc7ed35152" x="340.518756" y="457.682653" style="fill: #1f77b4; stroke: #1f77b4"/>
     <use xlink:href="#mfc7ed35152" x="386.691938" y="469.911639" style="fill: #1f77b4; stroke: #1f77b4"/>
     <use xlink:href="#mfc7ed35152" x="381.667913" y="468.517605" style="fill: #1f77b4; stroke: #1f77b4"/>
     <use xlink:href="#mfc7ed35152" x="342.364316" y="458.274493" style="fill: #1f77b4; stroke: #1f77b4"/>
     <use xlink:href="#mfc7ed35152" x="346.294676" y="459.426085" style="fill: #1f77b4; stroke: #1f77b4"/>
     <use xlink:href="#mfc7ed35152" x="333.956764" y="455.793043" style="fill: #1f77b4; stroke: #1f77b4"/>
     <use xlink:href="#mfc7ed35152" x="350.874399" y="460.991253" style="fill: #1f77b4; stroke: #1f77b4"/>
     <use xlink:href="#mfc7ed35152" x="318.098617" y="451.03693" style="fill: #1f77b4; stroke: #1f77b4"/>
     <use xlink:href="#mfc7ed35152" x="315.056861" y="449.995862" style="fill: #1f77b4; stroke: #1f77b4"/>
     <use xlink:href="#mfc7ed35152" x="339.459268" y="457.671957" style="fill: #1f77b4; stroke: #1f77b4"/>
     <use xlink:href="#mfc7ed35152" x="303.40249" y="447.55363" style="fill: #1f77b4; stroke: #1f77b4"/>
     <use xlink:href="#mfc7ed35152" x="337.374468" y="457.383167" style="fill: #1f77b4; stroke: #1f77b4"/>
     <use xlink:href="#mfc7ed35152" x="354.155395" y="461.775619" style="fill: #1f77b4; stroke: #1f77b4"/>
     <use xlink:href="#mfc7ed35152" x="297.865809" y="446.394907" style="fill: #1f77b4; stroke: #1f77b4"/>
     <use xlink:href="#mfc7ed35152" x="356.889559" y="461.821968" style="fill: #1f77b4; stroke: #1f77b4"/>
     <use xlink:href="#mfc7ed35152" x="298.686058" y="447.321885" style="fill: #1f77b4; stroke: #1f77b4"/>
     <use xlink:href="#mfc7ed35152" x="283.784868" y="440.547811" style="fill: #1f77b4; stroke: #1f77b4"/>
     <use xlink:href="#mfc7ed35152" x="277.291231" y="437.321213" style="fill: #1f77b4; stroke: #1f77b4"/>
     <use xlink:href="#mfc7ed35152" x="276.368451" y="436.69372" style="fill: #1f77b4; stroke: #1f77b4"/>
     <use xlink:href="#mfc7ed35152" x="332.077027" y="455.750259" style="fill: #1f77b4; stroke: #1f77b4"/>
     <use xlink:href="#mfc7ed35152" x="280.777289" y="439.22865" style="fill: #1f77b4; stroke: #1f77b4"/>
     <use xlink:href="#mfc7ed35152" x="298.412642" y="447.293363" style="fill: #1f77b4; stroke: #1f77b4"/>
     <use xlink:href="#mfc7ed35152" x="278.897552" y="438.64394" style="fill: #1f77b4; stroke: #1f77b4"/>
     <use xlink:href="#mfc7ed35152" x="348.687069" y="460.663245" style="fill: #1f77b4; stroke: #1f77b4"/>
     <use xlink:href="#mfc7ed35152" x="276.641867" y="437.292691" style="fill: #1f77b4; stroke: #1f77b4"/>
     <use xlink:href="#mfc7ed35152" x="329.03527" y="455.678953" style="fill: #1f77b4; stroke: #1f77b4"/>
     <use xlink:href="#mfc7ed35152" x="328.864385" y="455.661127" style="fill: #1f77b4; stroke: #1f77b4"/>
     <use xlink:href="#mfc7ed35152" x="307.777151" y="449.08671" style="fill: #1f77b4; stroke: #1f77b4"/>
     <use xlink:href="#mfc7ed35152" x="277.803886" y="437.798964" style="fill: #1f77b4; stroke: #1f77b4"/>
     <use xlink:href="#mfc7ed35152" x="279.170968" y="438.672463" style="fill: #1f77b4; stroke: #1f77b4"/>
     <use xlink:href="#mfc7ed35152" x="362.938895" y="465.198309" style="fill: #1f77b4; stroke: #1f77b4"/>
     <use xlink:href="#mfc7ed35152" x="303.505021" y="448.334431" style="fill: #1f77b4; stroke: #1f77b4"/>
     <use xlink:href="#mfc7ed35152" x="360.443971" y="465.037871" style="fill: #1f77b4; stroke: #1f77b4"/>
     <use xlink:href="#mfc7ed35152" x="359.657899" y="464.413943" style="fill: #1f77b4; stroke: #1f77b4"/>
     <use xlink:href="#mfc7ed35152" x="138.088144" y="324.365316" style="fill: #1f77b4; stroke: #1f77b4"/>
     <use xlink:href="#mfc7ed35152" x="137.028655" y="323.841217" style="fill: #1f77b4; stroke: #1f77b4"/>
     <use xlink:href="#mfc7ed35152" x="136.721062" y="323.452599" style="fill: #1f77b4; stroke: #1f77b4"/>
     <use xlink:href="#mfc7ed35152" x="193.523304" y="367.608864" style="fill: #1f77b4; stroke: #1f77b4"/>
     <use xlink:href="#mfc7ed35152" x="178.075281" y="356.157114" style="fill: #1f77b4; stroke: #1f77b4"/>
     <use xlink:href="#mfc7ed35152" x="177.152501" y="356.067981" style="fill: #1f77b4; stroke: #1f77b4"/>
     <use xlink:href="#mfc7ed35152" x="182.108172" y="363.070234" style="fill: #1f77b4; stroke: #1f77b4"/>
     <use xlink:href="#mfc7ed35152" x="179.784133" y="361.369585" style="fill: #1f77b4; stroke: #1f77b4"/>
     <use xlink:href="#mfc7ed35152" x="183.270192" y="363.547985" style="fill: #1f77b4; stroke: #1f77b4"/>
     <use xlink:href="#mfc7ed35152" x="181.117038" y="362.442741" style="fill: #1f77b4; stroke: #1f77b4"/>
     <use xlink:href="#mfc7ed35152" x="179.032239" y="360.225123" style="fill: #1f77b4; stroke: #1f77b4"/>
     <use xlink:href="#mfc7ed35152" x="173.256319" y="355.661537" style="fill: #1f77b4; stroke: #1f77b4"/>
     <use xlink:href="#mfc7ed35152" x="141.574202" y="327.149817" style="fill: #1f77b4; stroke: #1f77b4"/>
     <use xlink:href="#mfc7ed35152" x="169.360136" y="354.902128" style="fill: #1f77b4; stroke: #1f77b4"/>
     <use xlink:href="#mfc7ed35152" x="293.901272" y="442.619252" style="fill: #1f77b4; stroke: #1f77b4"/>
     <use xlink:href="#mfc7ed35152" x="120.69203" y="286.947472" style="fill: #1f77b4; stroke: #1f77b4"/>
     <use xlink:href="#mfc7ed35152" x="293.798741" y="442.608556" style="fill: #1f77b4; stroke: #1f77b4"/>
     <use xlink:href="#mfc7ed35152" x="292.568368" y="442.227069" style="fill: #1f77b4; stroke: #1f77b4"/>
     <use xlink:href="#mfc7ed35152" x="314.441674" y="449.32915" style="fill: #1f77b4; stroke: #1f77b4"/>
     <use xlink:href="#mfc7ed35152" x="313.963195" y="449.279236" style="fill: #1f77b4; stroke: #1f77b4"/>
     <use xlink:href="#mfc7ed35152" x="140.241297" y="325.802133" style="fill: #1f77b4; stroke: #1f77b4"/>
     <use xlink:href="#mfc7ed35152" x="168.676595" y="354.873605" style="fill: #1f77b4; stroke: #1f77b4"/>
     <use xlink:href="#mfc7ed35152" x="169.462667" y="355.479706" style="fill: #1f77b4; stroke: #1f77b4"/>
     <use xlink:href="#mfc7ed35152" x="294.072158" y="442.997174" style="fill: #1f77b4; stroke: #1f77b4"/>
     <use xlink:href="#mfc7ed35152" x="290.34686" y="442.177154" style="fill: #1f77b4; stroke: #1f77b4"/>
     <use xlink:href="#mfc7ed35152" x="168.471533" y="354.852213" style="fill: #1f77b4; stroke: #1f77b4"/>
     <use xlink:href="#mfc7ed35152" x="293.969627" y="442.986478" style="fill: #1f77b4; stroke: #1f77b4"/>
     <use xlink:href="#mfc7ed35152" x="165.942432" y="354.082108" style="fill: #1f77b4; stroke: #1f77b4"/>
     <use xlink:href="#mfc7ed35152" x="154.219707" y="346.958635" style="fill: #1f77b4; stroke: #1f77b4"/>
     <use xlink:href="#mfc7ed35152" x="290.244329" y="442.166459" style="fill: #1f77b4; stroke: #1f77b4"/>
     <use xlink:href="#mfc7ed35152" x="395.475438" y="471.455414" style="fill: #1f77b4; stroke: #1f77b4"/>
     <use xlink:href="#mfc7ed35152" x="289.048133" y="441.325047" style="fill: #1f77b4; stroke: #1f77b4"/>
     <use xlink:href="#mfc7ed35152" x="102.851615" y="283.856355" style="fill: #1f77b4; stroke: #1f77b4"/>
     <use xlink:href="#mfc7ed35152" x="102.988323" y="284.227147" style="fill: #1f77b4; stroke: #1f77b4"/>
     <use xlink:href="#mfc7ed35152" x="394.313418" y="471.2308" style="fill: #1f77b4; stroke: #1f77b4"/>
     <use xlink:href="#mfc7ed35152" x="165.053829" y="354.053586" style="fill: #1f77b4; stroke: #1f77b4"/>
     <use xlink:href="#mfc7ed35152" x="102.509844" y="283.246688" style="fill: #1f77b4; stroke: #1f77b4"/>
     <use xlink:href="#mfc7ed35152" x="392.809628" y="470.888531" style="fill: #1f77b4; stroke: #1f77b4"/>
     <use xlink:href="#mfc7ed35152" x="155.552612" y="348.031791" style="fill: #1f77b4; stroke: #1f77b4"/>
     <use xlink:href="#mfc7ed35152" x="102.612375" y="283.831398" style="fill: #1f77b4; stroke: #1f77b4"/>
     <use xlink:href="#mfc7ed35152" x="448.244788" y="484.401026" style="fill: #1f77b4; stroke: #1f77b4"/>
     <use xlink:href="#mfc7ed35152" x="450.773889" y="485.057041" style="fill: #1f77b4; stroke: #1f77b4"/>
     <use xlink:href="#mfc7ed35152" x="484.677514" y="491.709895" style="fill: #1f77b4; stroke: #1f77b4"/>
     <use xlink:href="#mfc7ed35152" x="478.901594" y="490.864918" style="fill: #1f77b4; stroke: #1f77b4"/>
     <use xlink:href="#mfc7ed35152" x="487.274969" y="492.315996" style="fill: #1f77b4; stroke: #1f77b4"/>
     <use xlink:href="#mfc7ed35152" x="485.668648" y="492.180515" style="fill: #1f77b4; stroke: #1f77b4"/>
     <use xlink:href="#mfc7ed35152" x="497.664789" y="492.469304" style="fill: #1f77b4; stroke: #1f77b4"/>
     <use xlink:href="#mfc7ed35152" x="497.220488" y="492.462173" style="fill: #1f77b4; stroke: #1f77b4"/>
     <use xlink:href="#mfc7ed35152" x="479.961082" y="491.585109" style="fill: #1f77b4; stroke: #1f77b4"/>
     <use xlink:href="#mfc7ed35152" x="498.109091" y="492.48" style="fill: #1f77b4; stroke: #1f77b4"/>
     <use xlink:href="#mfc7ed35152" x="399.405797" y="471.776291" style="fill: #1f77b4; stroke: #1f77b4"/>
     <use xlink:href="#mfc7ed35152" x="129.714769" y="287.803144" style="fill: #1f77b4; stroke: #1f77b4"/>
     <use xlink:href="#mfc7ed35152" x="129.441352" y="287.774622" style="fill: #1f77b4; stroke: #1f77b4"/>
     <use xlink:href="#mfc7ed35152" x="478.012991" y="489.000265" style="fill: #1f77b4; stroke: #1f77b4"/>
     <use xlink:href="#mfc7ed35152" x="430.67779" y="483.44909" style="fill: #1f77b4; stroke: #1f77b4"/>
     <use xlink:href="#mfc7ed35152" x="428.661344" y="483.238737" style="fill: #1f77b4; stroke: #1f77b4"/>
     <use xlink:href="#mfc7ed35152" x="452.004263" y="486.033934" style="fill: #1f77b4; stroke: #1f77b4"/>
     <use xlink:href="#mfc7ed35152" x="414.751289" y="479.491605" style="fill: #1f77b4; stroke: #1f77b4"/>
     <use xlink:href="#mfc7ed35152" x="432.796766" y="483.791359" style="fill: #1f77b4; stroke: #1f77b4"/>
     <use xlink:href="#mfc7ed35152" x="427.636033" y="482.661158" style="fill: #1f77b4; stroke: #1f77b4"/>
     <use xlink:href="#mfc7ed35152" x="434.813211" y="484.151455" style="fill: #1f77b4; stroke: #1f77b4"/>
     <use xlink:href="#mfc7ed35152" x="416.631026" y="480.411453" style="fill: #1f77b4; stroke: #1f77b4"/>
     <use xlink:href="#mfc7ed35152" x="435.565106" y="484.229891" style="fill: #1f77b4; stroke: #1f77b4"/>
     <use xlink:href="#mfc7ed35152" x="427.909449" y="483.160301" style="fill: #1f77b4; stroke: #1f77b4"/>
     <use xlink:href="#mfc7ed35152" x="429.51577" y="483.32787" style="fill: #1f77b4; stroke: #1f77b4"/>
     <use xlink:href="#mfc7ed35152" x="412.495604" y="479.238468" style="fill: #1f77b4; stroke: #1f77b4"/>
     <use xlink:href="#mfc7ed35152" x="456.89158" y="487.142743" style="fill: #1f77b4; stroke: #1f77b4"/>
     <use xlink:href="#mfc7ed35152" x="434.608149" y="484.130063" style="fill: #1f77b4; stroke: #1f77b4"/>
     <use xlink:href="#mfc7ed35152" x="432.967651" y="483.933971" style="fill: #1f77b4; stroke: #1f77b4"/>
     <use xlink:href="#mfc7ed35152" x="410.92346" y="478.703673" style="fill: #1f77b4; stroke: #1f77b4"/>
     <use xlink:href="#mfc7ed35152" x="419.672782" y="481.206515" style="fill: #1f77b4; stroke: #1f77b4"/>
     <use xlink:href="#mfc7ed35152" x="259.074868" y="426.988968" style="fill: #1f77b4; stroke: #1f77b4"/>
     <use xlink:href="#mfc7ed35152" x="227.905407" y="402.841178" style="fill: #1f77b4; stroke: #1f77b4"/>
     <use xlink:href="#mfc7ed35152" x="225.718076" y="402.27786" style="fill: #1f77b4; stroke: #1f77b4"/>
     <use xlink:href="#mfc7ed35152" x="263.039405" y="431.598904" style="fill: #1f77b4; stroke: #1f77b4"/>
     <use xlink:href="#mfc7ed35152" x="285.73296" y="440.982778" style="fill: #1f77b4; stroke: #1f77b4"/>
     <use xlink:href="#mfc7ed35152" x="213.585227" y="399.272311" style="fill: #1f77b4; stroke: #1f77b4"/>
     <use xlink:href="#mfc7ed35152" x="264.303955" y="432.390401" style="fill: #1f77b4; stroke: #1f77b4"/>
     <use xlink:href="#mfc7ed35152" x="283.819045" y="440.783121" style="fill: #1f77b4; stroke: #1f77b4"/>
     <use xlink:href="#mfc7ed35152" x="231.254757" y="413.954224" style="fill: #1f77b4; stroke: #1f77b4"/>
     <use xlink:href="#mfc7ed35152" x="281.153236" y="439.770576" style="fill: #1f77b4; stroke: #1f77b4"/>
     <use xlink:href="#mfc7ed35152" x="214.302945" y="400.135114" style="fill: #1f77b4; stroke: #1f77b4"/>
     <use xlink:href="#mfc7ed35152" x="264.030539" y="432.361878" style="fill: #1f77b4; stroke: #1f77b4"/>
     <use xlink:href="#mfc7ed35152" x="274.488713" y="434.287141" style="fill: #1f77b4; stroke: #1f77b4"/>
     <use xlink:href="#mfc7ed35152" x="283.613983" y="440.259022" style="fill: #1f77b4; stroke: #1f77b4"/>
     <use xlink:href="#mfc7ed35152" x="233.544618" y="415.373214" style="fill: #1f77b4; stroke: #1f77b4"/>
     <use xlink:href="#mfc7ed35152" x="213.004217" y="399.26518" style="fill: #1f77b4; stroke: #1f77b4"/>
     <use xlink:href="#mfc7ed35152" x="93.042804" y="100.114953" style="fill: #1f77b4; stroke: #1f77b4"/>
     <use xlink:href="#mfc7ed35152" x="92.495971" y="92.11085" style="fill: #1f77b4; stroke: #1f77b4"/>
     <use xlink:href="#mfc7ed35152" x="92.290909" y="89.28" style="fill: #1f77b4; stroke: #1f77b4"/>
     <use xlink:href="#mfc7ed35152" x="98.613662" y="179.453617" style="fill: #1f77b4; stroke: #1f77b4"/>
     <use xlink:href="#mfc7ed35152" x="98.135183" y="179.07213" style="fill: #1f77b4; stroke: #1f77b4"/>
     <use xlink:href="#mfc7ed35152" x="97.759236" y="179.032912" style="fill: #1f77b4; stroke: #1f77b4"/>
     <use xlink:href="#mfc7ed35152" x="405.694373" y="474.022432" style="fill: #1f77b4; stroke: #1f77b4"/>
     <use xlink:href="#mfc7ed35152" x="403.541219" y="473.594595" style="fill: #1f77b4; stroke: #1f77b4"/>
     <use xlink:href="#mfc7ed35152" x="404.600707" y="473.601726" style="fill: #1f77b4; stroke: #1f77b4"/>
     <use xlink:href="#mfc7ed35152" x="400.157692" y="473.366416" style="fill: #1f77b4; stroke: #1f77b4"/>
     <use xlink:href="#mfc7ed35152" x="379.138812" y="468.342906" style="fill: #1f77b4; stroke: #1f77b4"/>
     <use xlink:href="#mfc7ed35152" x="133.303358" y="298.014169" style="fill: #1f77b4; stroke: #1f77b4"/>
     <use xlink:href="#mfc7ed35152" x="126.878074" y="287.279045" style="fill: #1f77b4; stroke: #1f77b4"/>
     <use xlink:href="#mfc7ed35152" x="209.928283" y="383.766812" style="fill: #1f77b4; stroke: #1f77b4"/>
     <use xlink:href="#mfc7ed35152" x="187.849915" y="365.120283" style="fill: #1f77b4; stroke: #1f77b4"/>
     <use xlink:href="#mfc7ed35152" x="188.772695" y="365.733515" style="fill: #1f77b4; stroke: #1f77b4"/>
     <use xlink:href="#mfc7ed35152" x="205.792861" y="380.461777" style="fill: #1f77b4; stroke: #1f77b4"/>
     <use xlink:href="#mfc7ed35152" x="210.611824" y="384.194649" style="fill: #1f77b4; stroke: #1f77b4"/>
     <use xlink:href="#mfc7ed35152" x="378.660334" y="467.316099" style="fill: #1f77b4; stroke: #1f77b4"/>
     <use xlink:href="#mfc7ed35152" x="404.669062" y="473.762165" style="fill: #1f77b4; stroke: #1f77b4"/>
     <use xlink:href="#mfc7ed35152" x="250.428077" y="421.983284" style="fill: #1f77b4; stroke: #1f77b4"/>
     <use xlink:href="#mfc7ed35152" x="245.164812" y="421.031348" style="fill: #1f77b4; stroke: #1f77b4"/>
     <use xlink:href="#mfc7ed35152" x="242.874951" y="419.911844" style="fill: #1f77b4; stroke: #1f77b4"/>
     <use xlink:href="#mfc7ed35152" x="246.224301" y="421.544752" style="fill: #1f77b4; stroke: #1f77b4"/>
     <use xlink:href="#mfc7ed35152" x="242.430649" y="419.865495" style="fill: #1f77b4; stroke: #1f77b4"/>
     <use xlink:href="#mfc7ed35152" x="246.395186" y="421.562578" style="fill: #1f77b4; stroke: #1f77b4"/>
     <use xlink:href="#mfc7ed35152" x="241.986348" y="419.462616" style="fill: #1f77b4; stroke: #1f77b4"/>
     <use xlink:href="#mfc7ed35152" x="243.490137" y="420.378898" style="fill: #1f77b4; stroke: #1f77b4"/>
     <use xlink:href="#mfc7ed35152" x="229.306665" y="412.709934" style="fill: #1f77b4; stroke: #1f77b4"/>
     <use xlink:href="#mfc7ed35152" x="228.247177" y="412.168008" style="fill: #1f77b4; stroke: #1f77b4"/>
     <use xlink:href="#mfc7ed35152" x="407.642464" y="474.696274" style="fill: #1f77b4; stroke: #1f77b4"/>
    </g>
   </g>
   <g id="matplotlib.axis_1">
    <g id="xtick_1">
     <g id="line2d_1">
      <defs>
       <path id="mc295e39d01" d="M 0 0 
L 0 3.5 
" style="stroke: #000000; stroke-width: 0.8"/>
      </defs>
      <g>
       <use xlink:href="#mc295e39d01" x="85.93398" y="512.64" style="stroke: #000000; stroke-width: 0.8"/>
      </g>
     </g>
     <g id="text_1">
      <!-- 2600 -->
      <g transform="translate(69.39148 529.517969)scale(0.13 -0.13)">
       <defs>
        <path id="DejaVuSans-32" d="M 1228 531 
L 3431 531 
L 3431 0 
L 469 0 
L 469 531 
Q 828 903 1448 1529 
Q 2069 2156 2228 2338 
Q 2531 2678 2651 2914 
Q 2772 3150 2772 3378 
Q 2772 3750 2511 3984 
Q 2250 4219 1831 4219 
Q 1534 4219 1204 4116 
Q 875 4013 500 3803 
L 500 4441 
Q 881 4594 1212 4672 
Q 1544 4750 1819 4750 
Q 2544 4750 2975 4387 
Q 3406 4025 3406 3419 
Q 3406 3131 3298 2873 
Q 3191 2616 2906 2266 
Q 2828 2175 2409 1742 
Q 1991 1309 1228 531 
z
" transform="scale(0.015625)"/>
        <path id="DejaVuSans-36" d="M 2113 2584 
Q 1688 2584 1439 2293 
Q 1191 2003 1191 1497 
Q 1191 994 1439 701 
Q 1688 409 2113 409 
Q 2538 409 2786 701 
Q 3034 994 3034 1497 
Q 3034 2003 2786 2293 
Q 2538 2584 2113 2584 
z
M 3366 4563 
L 3366 3988 
Q 3128 4100 2886 4159 
Q 2644 4219 2406 4219 
Q 1781 4219 1451 3797 
Q 1122 3375 1075 2522 
Q 1259 2794 1537 2939 
Q 1816 3084 2150 3084 
Q 2853 3084 3261 2657 
Q 3669 2231 3669 1497 
Q 3669 778 3244 343 
Q 2819 -91 2113 -91 
Q 1303 -91 875 529 
Q 447 1150 447 2328 
Q 447 3434 972 4092 
Q 1497 4750 2381 4750 
Q 2619 4750 2861 4703 
Q 3103 4656 3366 4563 
z
" transform="scale(0.015625)"/>
        <path id="DejaVuSans-30" d="M 2034 4250 
Q 1547 4250 1301 3770 
Q 1056 3291 1056 2328 
Q 1056 1369 1301 889 
Q 1547 409 2034 409 
Q 2525 409 2770 889 
Q 3016 1369 3016 2328 
Q 3016 3291 2770 3770 
Q 2525 4250 2034 4250 
z
M 2034 4750 
Q 2819 4750 3233 4129 
Q 3647 3509 3647 2328 
Q 3647 1150 3233 529 
Q 2819 -91 2034 -91 
Q 1250 -91 836 529 
Q 422 1150 422 2328 
Q 422 3509 836 4129 
Q 1250 4750 2034 4750 
z
" transform="scale(0.015625)"/>
       </defs>
       <use xlink:href="#DejaVuSans-32"/>
       <use xlink:href="#DejaVuSans-36" x="63.623047"/>
       <use xlink:href="#DejaVuSans-30" x="127.246094"/>
       <use xlink:href="#DejaVuSans-30" x="190.869141"/>
      </g>
     </g>
    </g>
    <g id="xtick_2">
     <g id="line2d_2">
      <g>
       <use xlink:href="#mc295e39d01" x="154.288061" y="512.64" style="stroke: #000000; stroke-width: 0.8"/>
      </g>
     </g>
     <g id="text_2">
      <!-- 2800 -->
      <g transform="translate(137.745561 529.517969)scale(0.13 -0.13)">
       <defs>
        <path id="DejaVuSans-38" d="M 2034 2216 
Q 1584 2216 1326 1975 
Q 1069 1734 1069 1313 
Q 1069 891 1326 650 
Q 1584 409 2034 409 
Q 2484 409 2743 651 
Q 3003 894 3003 1313 
Q 3003 1734 2745 1975 
Q 2488 2216 2034 2216 
z
M 1403 2484 
Q 997 2584 770 2862 
Q 544 3141 544 3541 
Q 544 4100 942 4425 
Q 1341 4750 2034 4750 
Q 2731 4750 3128 4425 
Q 3525 4100 3525 3541 
Q 3525 3141 3298 2862 
Q 3072 2584 2669 2484 
Q 3125 2378 3379 2068 
Q 3634 1759 3634 1313 
Q 3634 634 3220 271 
Q 2806 -91 2034 -91 
Q 1263 -91 848 271 
Q 434 634 434 1313 
Q 434 1759 690 2068 
Q 947 2378 1403 2484 
z
M 1172 3481 
Q 1172 3119 1398 2916 
Q 1625 2713 2034 2713 
Q 2441 2713 2670 2916 
Q 2900 3119 2900 3481 
Q 2900 3844 2670 4047 
Q 2441 4250 2034 4250 
Q 1625 4250 1398 4047 
Q 1172 3844 1172 3481 
z
" transform="scale(0.015625)"/>
       </defs>
       <use xlink:href="#DejaVuSans-32"/>
       <use xlink:href="#DejaVuSans-38" x="63.623047"/>
       <use xlink:href="#DejaVuSans-30" x="127.246094"/>
       <use xlink:href="#DejaVuSans-30" x="190.869141"/>
      </g>
     </g>
    </g>
    <g id="xtick_3">
     <g id="line2d_3">
      <g>
       <use xlink:href="#mc295e39d01" x="222.642142" y="512.64" style="stroke: #000000; stroke-width: 0.8"/>
      </g>
     </g>
     <g id="text_3">
      <!-- 3000 -->
      <g transform="translate(206.099642 529.517969)scale(0.13 -0.13)">
       <defs>
        <path id="DejaVuSans-33" d="M 2597 2516 
Q 3050 2419 3304 2112 
Q 3559 1806 3559 1356 
Q 3559 666 3084 287 
Q 2609 -91 1734 -91 
Q 1441 -91 1130 -33 
Q 819 25 488 141 
L 488 750 
Q 750 597 1062 519 
Q 1375 441 1716 441 
Q 2309 441 2620 675 
Q 2931 909 2931 1356 
Q 2931 1769 2642 2001 
Q 2353 2234 1838 2234 
L 1294 2234 
L 1294 2753 
L 1863 2753 
Q 2328 2753 2575 2939 
Q 2822 3125 2822 3475 
Q 2822 3834 2567 4026 
Q 2313 4219 1838 4219 
Q 1578 4219 1281 4162 
Q 984 4106 628 3988 
L 628 4550 
Q 988 4650 1302 4700 
Q 1616 4750 1894 4750 
Q 2613 4750 3031 4423 
Q 3450 4097 3450 3541 
Q 3450 3153 3228 2886 
Q 3006 2619 2597 2516 
z
" transform="scale(0.015625)"/>
       </defs>
       <use xlink:href="#DejaVuSans-33"/>
       <use xlink:href="#DejaVuSans-30" x="63.623047"/>
       <use xlink:href="#DejaVuSans-30" x="127.246094"/>
       <use xlink:href="#DejaVuSans-30" x="190.869141"/>
      </g>
     </g>
    </g>
    <g id="xtick_4">
     <g id="line2d_4">
      <g>
       <use xlink:href="#mc295e39d01" x="290.996224" y="512.64" style="stroke: #000000; stroke-width: 0.8"/>
      </g>
     </g>
     <g id="text_4">
      <!-- 3200 -->
      <g transform="translate(274.453724 529.517969)scale(0.13 -0.13)">
       <use xlink:href="#DejaVuSans-33"/>
       <use xlink:href="#DejaVuSans-32" x="63.623047"/>
       <use xlink:href="#DejaVuSans-30" x="127.246094"/>
       <use xlink:href="#DejaVuSans-30" x="190.869141"/>
      </g>
     </g>
    </g>
    <g id="xtick_5">
     <g id="line2d_5">
      <g>
       <use xlink:href="#mc295e39d01" x="359.350305" y="512.64" style="stroke: #000000; stroke-width: 0.8"/>
      </g>
     </g>
     <g id="text_5">
      <!-- 3400 -->
      <g transform="translate(342.807805 529.517969)scale(0.13 -0.13)">
       <defs>
        <path id="DejaVuSans-34" d="M 2419 4116 
L 825 1625 
L 2419 1625 
L 2419 4116 
z
M 2253 4666 
L 3047 4666 
L 3047 1625 
L 3713 1625 
L 3713 1100 
L 3047 1100 
L 3047 0 
L 2419 0 
L 2419 1100 
L 313 1100 
L 313 1709 
L 2253 4666 
z
" transform="scale(0.015625)"/>
       </defs>
       <use xlink:href="#DejaVuSans-33"/>
       <use xlink:href="#DejaVuSans-34" x="63.623047"/>
       <use xlink:href="#DejaVuSans-30" x="127.246094"/>
       <use xlink:href="#DejaVuSans-30" x="190.869141"/>
      </g>
     </g>
    </g>
    <g id="xtick_6">
     <g id="line2d_6">
      <g>
       <use xlink:href="#mc295e39d01" x="427.704387" y="512.64" style="stroke: #000000; stroke-width: 0.8"/>
      </g>
     </g>
     <g id="text_6">
      <!-- 3600 -->
      <g transform="translate(411.161887 529.517969)scale(0.13 -0.13)">
       <use xlink:href="#DejaVuSans-33"/>
       <use xlink:href="#DejaVuSans-36" x="63.623047"/>
       <use xlink:href="#DejaVuSans-30" x="127.246094"/>
       <use xlink:href="#DejaVuSans-30" x="190.869141"/>
      </g>
     </g>
    </g>
    <g id="xtick_7">
     <g id="line2d_7">
      <g>
       <use xlink:href="#mc295e39d01" x="496.058468" y="512.64" style="stroke: #000000; stroke-width: 0.8"/>
      </g>
     </g>
     <g id="text_7">
      <!-- 3800 -->
      <g transform="translate(479.515968 529.517969)scale(0.13 -0.13)">
       <use xlink:href="#DejaVuSans-33"/>
       <use xlink:href="#DejaVuSans-38" x="63.623047"/>
       <use xlink:href="#DejaVuSans-30" x="127.246094"/>
       <use xlink:href="#DejaVuSans-30" x="190.869141"/>
      </g>
     </g>
    </g>
    <g id="text_8">
     <!-- Total traveled distance -->
     <g transform="translate(210.004687 547.619219)scale(0.15 -0.15)">
      <defs>
       <path id="DejaVuSans-54" d="M -19 4666 
L 3928 4666 
L 3928 4134 
L 2272 4134 
L 2272 0 
L 1638 0 
L 1638 4134 
L -19 4134 
L -19 4666 
z
" transform="scale(0.015625)"/>
       <path id="DejaVuSans-6f" d="M 1959 3097 
Q 1497 3097 1228 2736 
Q 959 2375 959 1747 
Q 959 1119 1226 758 
Q 1494 397 1959 397 
Q 2419 397 2687 759 
Q 2956 1122 2956 1747 
Q 2956 2369 2687 2733 
Q 2419 3097 1959 3097 
z
M 1959 3584 
Q 2709 3584 3137 3096 
Q 3566 2609 3566 1747 
Q 3566 888 3137 398 
Q 2709 -91 1959 -91 
Q 1206 -91 779 398 
Q 353 888 353 1747 
Q 353 2609 779 3096 
Q 1206 3584 1959 3584 
z
" transform="scale(0.015625)"/>
       <path id="DejaVuSans-74" d="M 1172 4494 
L 1172 3500 
L 2356 3500 
L 2356 3053 
L 1172 3053 
L 1172 1153 
Q 1172 725 1289 603 
Q 1406 481 1766 481 
L 2356 481 
L 2356 0 
L 1766 0 
Q 1100 0 847 248 
Q 594 497 594 1153 
L 594 3053 
L 172 3053 
L 172 3500 
L 594 3500 
L 594 4494 
L 1172 4494 
z
" transform="scale(0.015625)"/>
       <path id="DejaVuSans-61" d="M 2194 1759 
Q 1497 1759 1228 1600 
Q 959 1441 959 1056 
Q 959 750 1161 570 
Q 1363 391 1709 391 
Q 2188 391 2477 730 
Q 2766 1069 2766 1631 
L 2766 1759 
L 2194 1759 
z
M 3341 1997 
L 3341 0 
L 2766 0 
L 2766 531 
Q 2569 213 2275 61 
Q 1981 -91 1556 -91 
Q 1019 -91 701 211 
Q 384 513 384 1019 
Q 384 1609 779 1909 
Q 1175 2209 1959 2209 
L 2766 2209 
L 2766 2266 
Q 2766 2663 2505 2880 
Q 2244 3097 1772 3097 
Q 1472 3097 1187 3025 
Q 903 2953 641 2809 
L 641 3341 
Q 956 3463 1253 3523 
Q 1550 3584 1831 3584 
Q 2591 3584 2966 3190 
Q 3341 2797 3341 1997 
z
" transform="scale(0.015625)"/>
       <path id="DejaVuSans-6c" d="M 603 4863 
L 1178 4863 
L 1178 0 
L 603 0 
L 603 4863 
z
" transform="scale(0.015625)"/>
       <path id="DejaVuSans-20" transform="scale(0.015625)"/>
       <path id="DejaVuSans-72" d="M 2631 2963 
Q 2534 3019 2420 3045 
Q 2306 3072 2169 3072 
Q 1681 3072 1420 2755 
Q 1159 2438 1159 1844 
L 1159 0 
L 581 0 
L 581 3500 
L 1159 3500 
L 1159 2956 
Q 1341 3275 1631 3429 
Q 1922 3584 2338 3584 
Q 2397 3584 2469 3576 
Q 2541 3569 2628 3553 
L 2631 2963 
z
" transform="scale(0.015625)"/>
       <path id="DejaVuSans-76" d="M 191 3500 
L 800 3500 
L 1894 563 
L 2988 3500 
L 3597 3500 
L 2284 0 
L 1503 0 
L 191 3500 
z
" transform="scale(0.015625)"/>
       <path id="DejaVuSans-65" d="M 3597 1894 
L 3597 1613 
L 953 1613 
Q 991 1019 1311 708 
Q 1631 397 2203 397 
Q 2534 397 2845 478 
Q 3156 559 3463 722 
L 3463 178 
Q 3153 47 2828 -22 
Q 2503 -91 2169 -91 
Q 1331 -91 842 396 
Q 353 884 353 1716 
Q 353 2575 817 3079 
Q 1281 3584 2069 3584 
Q 2775 3584 3186 3129 
Q 3597 2675 3597 1894 
z
M 3022 2063 
Q 3016 2534 2758 2815 
Q 2500 3097 2075 3097 
Q 1594 3097 1305 2825 
Q 1016 2553 972 2059 
L 3022 2063 
z
" transform="scale(0.015625)"/>
       <path id="DejaVuSans-64" d="M 2906 2969 
L 2906 4863 
L 3481 4863 
L 3481 0 
L 2906 0 
L 2906 525 
Q 2725 213 2448 61 
Q 2172 -91 1784 -91 
Q 1150 -91 751 415 
Q 353 922 353 1747 
Q 353 2572 751 3078 
Q 1150 3584 1784 3584 
Q 2172 3584 2448 3432 
Q 2725 3281 2906 2969 
z
M 947 1747 
Q 947 1113 1208 752 
Q 1469 391 1925 391 
Q 2381 391 2643 752 
Q 2906 1113 2906 1747 
Q 2906 2381 2643 2742 
Q 2381 3103 1925 3103 
Q 1469 3103 1208 2742 
Q 947 2381 947 1747 
z
" transform="scale(0.015625)"/>
       <path id="DejaVuSans-69" d="M 603 3500 
L 1178 3500 
L 1178 0 
L 603 0 
L 603 3500 
z
M 603 4863 
L 1178 4863 
L 1178 4134 
L 603 4134 
L 603 4863 
z
" transform="scale(0.015625)"/>
       <path id="DejaVuSans-73" d="M 2834 3397 
L 2834 2853 
Q 2591 2978 2328 3040 
Q 2066 3103 1784 3103 
Q 1356 3103 1142 2972 
Q 928 2841 928 2578 
Q 928 2378 1081 2264 
Q 1234 2150 1697 2047 
L 1894 2003 
Q 2506 1872 2764 1633 
Q 3022 1394 3022 966 
Q 3022 478 2636 193 
Q 2250 -91 1575 -91 
Q 1294 -91 989 -36 
Q 684 19 347 128 
L 347 722 
Q 666 556 975 473 
Q 1284 391 1588 391 
Q 1994 391 2212 530 
Q 2431 669 2431 922 
Q 2431 1156 2273 1281 
Q 2116 1406 1581 1522 
L 1381 1569 
Q 847 1681 609 1914 
Q 372 2147 372 2553 
Q 372 3047 722 3315 
Q 1072 3584 1716 3584 
Q 2034 3584 2315 3537 
Q 2597 3491 2834 3397 
z
" transform="scale(0.015625)"/>
       <path id="DejaVuSans-6e" d="M 3513 2113 
L 3513 0 
L 2938 0 
L 2938 2094 
Q 2938 2591 2744 2837 
Q 2550 3084 2163 3084 
Q 1697 3084 1428 2787 
Q 1159 2491 1159 1978 
L 1159 0 
L 581 0 
L 581 3500 
L 1159 3500 
L 1159 2956 
Q 1366 3272 1645 3428 
Q 1925 3584 2291 3584 
Q 2894 3584 3203 3211 
Q 3513 2838 3513 2113 
z
" transform="scale(0.015625)"/>
       <path id="DejaVuSans-63" d="M 3122 3366 
L 3122 2828 
Q 2878 2963 2633 3030 
Q 2388 3097 2138 3097 
Q 1578 3097 1268 2742 
Q 959 2388 959 1747 
Q 959 1106 1268 751 
Q 1578 397 2138 397 
Q 2388 397 2633 464 
Q 2878 531 3122 666 
L 3122 134 
Q 2881 22 2623 -34 
Q 2366 -91 2075 -91 
Q 1284 -91 818 406 
Q 353 903 353 1747 
Q 353 2603 823 3093 
Q 1294 3584 2113 3584 
Q 2378 3584 2631 3529 
Q 2884 3475 3122 3366 
z
" transform="scale(0.015625)"/>
      </defs>
      <use xlink:href="#DejaVuSans-54"/>
      <use xlink:href="#DejaVuSans-6f" x="44.083984"/>
      <use xlink:href="#DejaVuSans-74" x="105.265625"/>
      <use xlink:href="#DejaVuSans-61" x="144.474609"/>
      <use xlink:href="#DejaVuSans-6c" x="205.753906"/>
      <use xlink:href="#DejaVuSans-20" x="233.537109"/>
      <use xlink:href="#DejaVuSans-74" x="265.324219"/>
      <use xlink:href="#DejaVuSans-72" x="304.533203"/>
      <use xlink:href="#DejaVuSans-61" x="345.646484"/>
      <use xlink:href="#DejaVuSans-76" x="406.925781"/>
      <use xlink:href="#DejaVuSans-65" x="466.105469"/>
      <use xlink:href="#DejaVuSans-6c" x="527.628906"/>
      <use xlink:href="#DejaVuSans-65" x="555.412109"/>
      <use xlink:href="#DejaVuSans-64" x="616.935547"/>
      <use xlink:href="#DejaVuSans-20" x="680.412109"/>
      <use xlink:href="#DejaVuSans-64" x="712.199219"/>
      <use xlink:href="#DejaVuSans-69" x="775.675781"/>
      <use xlink:href="#DejaVuSans-73" x="803.458984"/>
      <use xlink:href="#DejaVuSans-74" x="855.558594"/>
      <use xlink:href="#DejaVuSans-61" x="894.767578"/>
      <use xlink:href="#DejaVuSans-6e" x="956.046875"/>
      <use xlink:href="#DejaVuSans-63" x="1019.425781"/>
      <use xlink:href="#DejaVuSans-65" x="1074.40625"/>
     </g>
    </g>
   </g>
   <g id="matplotlib.axis_2">
    <g id="ytick_1">
     <g id="line2d_8">
      <defs>
       <path id="m2b126168ce" d="M 0 0 
L -3.5 0 
" style="stroke: #000000; stroke-width: 0.8"/>
      </defs>
      <g>
       <use xlink:href="#m2b126168ce" x="72" y="492.48" style="stroke: #000000; stroke-width: 0.8"/>
      </g>
     </g>
     <g id="text_9">
      <!-- 0 -->
      <g transform="translate(56.72875 497.418984)scale(0.13 -0.13)">
       <use xlink:href="#DejaVuSans-30"/>
      </g>
     </g>
    </g>
    <g id="ytick_2">
     <g id="line2d_9">
      <g>
       <use xlink:href="#m2b126168ce" x="72" y="421.173961" style="stroke: #000000; stroke-width: 0.8"/>
      </g>
     </g>
     <g id="text_10">
      <!-- 2000 -->
      <g transform="translate(31.915 426.112945)scale(0.13 -0.13)">
       <use xlink:href="#DejaVuSans-32"/>
       <use xlink:href="#DejaVuSans-30" x="63.623047"/>
       <use xlink:href="#DejaVuSans-30" x="127.246094"/>
       <use xlink:href="#DejaVuSans-30" x="190.869141"/>
      </g>
     </g>
    </g>
    <g id="ytick_3">
     <g id="line2d_10">
      <g>
       <use xlink:href="#m2b126168ce" x="72" y="349.867921" style="stroke: #000000; stroke-width: 0.8"/>
      </g>
     </g>
     <g id="text_11">
      <!-- 4000 -->
      <g transform="translate(31.915 354.806905)scale(0.13 -0.13)">
       <use xlink:href="#DejaVuSans-34"/>
       <use xlink:href="#DejaVuSans-30" x="63.623047"/>
       <use xlink:href="#DejaVuSans-30" x="127.246094"/>
       <use xlink:href="#DejaVuSans-30" x="190.869141"/>
      </g>
     </g>
    </g>
    <g id="ytick_4">
     <g id="line2d_11">
      <g>
       <use xlink:href="#m2b126168ce" x="72" y="278.561882" style="stroke: #000000; stroke-width: 0.8"/>
      </g>
     </g>
     <g id="text_12">
      <!-- 6000 -->
      <g transform="translate(31.915 283.500866)scale(0.13 -0.13)">
       <use xlink:href="#DejaVuSans-36"/>
       <use xlink:href="#DejaVuSans-30" x="63.623047"/>
       <use xlink:href="#DejaVuSans-30" x="127.246094"/>
       <use xlink:href="#DejaVuSans-30" x="190.869141"/>
      </g>
     </g>
    </g>
    <g id="ytick_5">
     <g id="line2d_12">
      <g>
       <use xlink:href="#m2b126168ce" x="72" y="207.255842" style="stroke: #000000; stroke-width: 0.8"/>
      </g>
     </g>
     <g id="text_13">
      <!-- 8000 -->
      <g transform="translate(31.915 212.194827)scale(0.13 -0.13)">
       <use xlink:href="#DejaVuSans-38"/>
       <use xlink:href="#DejaVuSans-30" x="63.623047"/>
       <use xlink:href="#DejaVuSans-30" x="127.246094"/>
       <use xlink:href="#DejaVuSans-30" x="190.869141"/>
      </g>
     </g>
    </g>
    <g id="ytick_6">
     <g id="line2d_13">
      <g>
       <use xlink:href="#m2b126168ce" x="72" y="135.949803" style="stroke: #000000; stroke-width: 0.8"/>
      </g>
     </g>
     <g id="text_14">
      <!-- 10000 -->
      <g transform="translate(23.64375 140.888787)scale(0.13 -0.13)">
       <defs>
        <path id="DejaVuSans-31" d="M 794 531 
L 1825 531 
L 1825 4091 
L 703 3866 
L 703 4441 
L 1819 4666 
L 2450 4666 
L 2450 531 
L 3481 531 
L 3481 0 
L 794 0 
L 794 531 
z
" transform="scale(0.015625)"/>
       </defs>
       <use xlink:href="#DejaVuSans-31"/>
       <use xlink:href="#DejaVuSans-30" x="63.623047"/>
       <use xlink:href="#DejaVuSans-30" x="127.246094"/>
       <use xlink:href="#DejaVuSans-30" x="190.869141"/>
       <use xlink:href="#DejaVuSans-30" x="254.492188"/>
      </g>
     </g>
    </g>
    <g id="text_15">
     <!-- Total waiting time -->
     <g transform="translate(16.524219 357.457734)rotate(-90)scale(0.15 -0.15)">
      <defs>
       <path id="DejaVuSans-77" d="M 269 3500 
L 844 3500 
L 1563 769 
L 2278 3500 
L 2956 3500 
L 3675 769 
L 4391 3500 
L 4966 3500 
L 4050 0 
L 3372 0 
L 2619 2869 
L 1863 0 
L 1184 0 
L 269 3500 
z
" transform="scale(0.015625)"/>
       <path id="DejaVuSans-67" d="M 2906 1791 
Q 2906 2416 2648 2759 
Q 2391 3103 1925 3103 
Q 1463 3103 1205 2759 
Q 947 2416 947 1791 
Q 947 1169 1205 825 
Q 1463 481 1925 481 
Q 2391 481 2648 825 
Q 2906 1169 2906 1791 
z
M 3481 434 
Q 3481 -459 3084 -895 
Q 2688 -1331 1869 -1331 
Q 1566 -1331 1297 -1286 
Q 1028 -1241 775 -1147 
L 775 -588 
Q 1028 -725 1275 -790 
Q 1522 -856 1778 -856 
Q 2344 -856 2625 -561 
Q 2906 -266 2906 331 
L 2906 616 
Q 2728 306 2450 153 
Q 2172 0 1784 0 
Q 1141 0 747 490 
Q 353 981 353 1791 
Q 353 2603 747 3093 
Q 1141 3584 1784 3584 
Q 2172 3584 2450 3431 
Q 2728 3278 2906 2969 
L 2906 3500 
L 3481 3500 
L 3481 434 
z
" transform="scale(0.015625)"/>
       <path id="DejaVuSans-6d" d="M 3328 2828 
Q 3544 3216 3844 3400 
Q 4144 3584 4550 3584 
Q 5097 3584 5394 3201 
Q 5691 2819 5691 2113 
L 5691 0 
L 5113 0 
L 5113 2094 
Q 5113 2597 4934 2840 
Q 4756 3084 4391 3084 
Q 3944 3084 3684 2787 
Q 3425 2491 3425 1978 
L 3425 0 
L 2847 0 
L 2847 2094 
Q 2847 2600 2669 2842 
Q 2491 3084 2119 3084 
Q 1678 3084 1418 2786 
Q 1159 2488 1159 1978 
L 1159 0 
L 581 0 
L 581 3500 
L 1159 3500 
L 1159 2956 
Q 1356 3278 1631 3431 
Q 1906 3584 2284 3584 
Q 2666 3584 2933 3390 
Q 3200 3197 3328 2828 
z
" transform="scale(0.015625)"/>
      </defs>
      <use xlink:href="#DejaVuSans-54"/>
      <use xlink:href="#DejaVuSans-6f" x="44.083984"/>
      <use xlink:href="#DejaVuSans-74" x="105.265625"/>
      <use xlink:href="#DejaVuSans-61" x="144.474609"/>
      <use xlink:href="#DejaVuSans-6c" x="205.753906"/>
      <use xlink:href="#DejaVuSans-20" x="233.537109"/>
      <use xlink:href="#DejaVuSans-77" x="265.324219"/>
      <use xlink:href="#DejaVuSans-61" x="347.111328"/>
      <use xlink:href="#DejaVuSans-69" x="408.390625"/>
      <use xlink:href="#DejaVuSans-74" x="436.173828"/>
      <use xlink:href="#DejaVuSans-69" x="475.382812"/>
      <use xlink:href="#DejaVuSans-6e" x="503.166016"/>
      <use xlink:href="#DejaVuSans-67" x="566.544922"/>
      <use xlink:href="#DejaVuSans-20" x="630.021484"/>
      <use xlink:href="#DejaVuSans-74" x="661.808594"/>
      <use xlink:href="#DejaVuSans-69" x="701.017578"/>
      <use xlink:href="#DejaVuSans-6d" x="728.800781"/>
      <use xlink:href="#DejaVuSans-65" x="826.212891"/>
     </g>
    </g>
   </g>
   <g id="patch_3">
    <path d="M 72 512.64 
L 72 69.12 
" style="fill: none; stroke: #000000; stroke-width: 0.8; stroke-linejoin: miter; stroke-linecap: square"/>
   </g>
   <g id="patch_4">
    <path d="M 518.4 512.64 
L 518.4 69.12 
" style="fill: none; stroke: #000000; stroke-width: 0.8; stroke-linejoin: miter; stroke-linecap: square"/>
   </g>
   <g id="patch_5">
    <path d="M 72 512.64 
L 518.4 512.64 
" style="fill: none; stroke: #000000; stroke-width: 0.8; stroke-linejoin: miter; stroke-linecap: square"/>
   </g>
   <g id="patch_6">
    <path d="M 72 69.12 
L 518.4 69.12 
" style="fill: none; stroke: #000000; stroke-width: 0.8; stroke-linejoin: miter; stroke-linecap: square"/>
   </g>
   <g id="text_16">
    <!-- Pareto-front of R2_2_3-200 -->
    <g transform="translate(194.632031 63.12)scale(0.15 -0.15)">
     <defs>
      <path id="DejaVuSans-50" d="M 1259 4147 
L 1259 2394 
L 2053 2394 
Q 2494 2394 2734 2622 
Q 2975 2850 2975 3272 
Q 2975 3691 2734 3919 
Q 2494 4147 2053 4147 
L 1259 4147 
z
M 628 4666 
L 2053 4666 
Q 2838 4666 3239 4311 
Q 3641 3956 3641 3272 
Q 3641 2581 3239 2228 
Q 2838 1875 2053 1875 
L 1259 1875 
L 1259 0 
L 628 0 
L 628 4666 
z
" transform="scale(0.015625)"/>
      <path id="DejaVuSans-2d" d="M 313 2009 
L 1997 2009 
L 1997 1497 
L 313 1497 
L 313 2009 
z
" transform="scale(0.015625)"/>
      <path id="DejaVuSans-66" d="M 2375 4863 
L 2375 4384 
L 1825 4384 
Q 1516 4384 1395 4259 
Q 1275 4134 1275 3809 
L 1275 3500 
L 2222 3500 
L 2222 3053 
L 1275 3053 
L 1275 0 
L 697 0 
L 697 3053 
L 147 3053 
L 147 3500 
L 697 3500 
L 697 3744 
Q 697 4328 969 4595 
Q 1241 4863 1831 4863 
L 2375 4863 
z
" transform="scale(0.015625)"/>
      <path id="DejaVuSans-52" d="M 2841 2188 
Q 3044 2119 3236 1894 
Q 3428 1669 3622 1275 
L 4263 0 
L 3584 0 
L 2988 1197 
Q 2756 1666 2539 1819 
Q 2322 1972 1947 1972 
L 1259 1972 
L 1259 0 
L 628 0 
L 628 4666 
L 2053 4666 
Q 2853 4666 3247 4331 
Q 3641 3997 3641 3322 
Q 3641 2881 3436 2590 
Q 3231 2300 2841 2188 
z
M 1259 4147 
L 1259 2491 
L 2053 2491 
Q 2509 2491 2742 2702 
Q 2975 2913 2975 3322 
Q 2975 3731 2742 3939 
Q 2509 4147 2053 4147 
L 1259 4147 
z
" transform="scale(0.015625)"/>
      <path id="DejaVuSans-5f" d="M 3263 -1063 
L 3263 -1509 
L -63 -1509 
L -63 -1063 
L 3263 -1063 
z
" transform="scale(0.015625)"/>
     </defs>
     <use xlink:href="#DejaVuSans-50"/>
     <use xlink:href="#DejaVuSans-61" x="55.802734"/>
     <use xlink:href="#DejaVuSans-72" x="117.082031"/>
     <use xlink:href="#DejaVuSans-65" x="155.945312"/>
     <use xlink:href="#DejaVuSans-74" x="217.46875"/>
     <use xlink:href="#DejaVuSans-6f" x="256.677734"/>
     <use xlink:href="#DejaVuSans-2d" x="319.734375"/>
     <use xlink:href="#DejaVuSans-66" x="355.818359"/>
     <use xlink:href="#DejaVuSans-72" x="391.023438"/>
     <use xlink:href="#DejaVuSans-6f" x="429.886719"/>
     <use xlink:href="#DejaVuSans-6e" x="491.068359"/>
     <use xlink:href="#DejaVuSans-74" x="554.447266"/>
     <use xlink:href="#DejaVuSans-20" x="593.65625"/>
     <use xlink:href="#DejaVuSans-6f" x="625.443359"/>
     <use xlink:href="#DejaVuSans-66" x="686.625"/>
     <use xlink:href="#DejaVuSans-20" x="721.830078"/>
     <use xlink:href="#DejaVuSans-52" x="753.617188"/>
     <use xlink:href="#DejaVuSans-32" x="823.099609"/>
     <use xlink:href="#DejaVuSans-5f" x="886.722656"/>
     <use xlink:href="#DejaVuSans-32" x="936.722656"/>
     <use xlink:href="#DejaVuSans-5f" x="1000.345703"/>
     <use xlink:href="#DejaVuSans-33" x="1050.345703"/>
     <use xlink:href="#DejaVuSans-2d" x="1113.96875"/>
     <use xlink:href="#DejaVuSans-32" x="1150.052734"/>
     <use xlink:href="#DejaVuSans-30" x="1213.675781"/>
     <use xlink:href="#DejaVuSans-30" x="1277.298828"/>
    </g>
   </g>
  </g>
 </g>
 <defs>
  <clipPath id="pe330a0afe9">
   <rect x="72" y="69.12" width="446.4" height="443.52"/>
  </clipPath>
 </defs>
</svg>
